<svg xmlns="http://www.w3.org/2000/svg" xmlns:xlink="http://www.w3.org/1999/xlink" width="116.01" height="116" viewBox="0 0 116.01 116">
  <defs>
    <linearGradient id="linear-gradient" x1="0.036" y1="0.961" x2="0.819" y2="0.183" gradientUnits="objectBoundingBox">
      <stop offset="0" stop-color="#066eff"/>
      <stop offset="1" stop-color="#779efe"/>
    </linearGradient>
    <filter id="Path_849" x="0" y="0" width="116.01" height="116" filterUnits="userSpaceOnUse">
      <feOffset dy="3" input="SourceAlpha"/>
      <feGaussianBlur stdDeviation="3" result="blur"/>
      <feFlood flood-opacity="0.161"/>
      <feComposite operator="in" in2="blur"/>
      <feComposite in="SourceGraphic"/>
    </filter>
  </defs>
  <g id="Group_100" data-name="Group 100" transform="translate(-215.096 445.803)">
    <g transform="matrix(1, 0, 0, 1, 215.1, -445.8)" filter="url(#Path_849)">
      <path id="Path_849-2" data-name="Path 849" d="M307.753-380.286l10.505-.009a3.849,3.849,0,0,0,3.847-3.854l-.009-13.4a3.852,3.852,0,0,0-3.855-3.847l-8.223.007a3.237,3.237,0,0,1-3.011-2.152q-.433-1.151-.945-2.271a3.237,3.237,0,0,1,.6-3.656l5.813-5.819a3.851,3.851,0,0,0,0-5.445L303-430.2a3.851,3.851,0,0,0-5.446,0l-5.857,5.861a3.178,3.178,0,0,1-3.508.673c-.836-.357-1.739-.72-2.516-1.022a3.167,3.167,0,0,1-2.014-2.959v-8.3a3.851,3.851,0,0,0-3.851-3.852h-13.4a3.851,3.851,0,0,0-3.85,3.852v8.224a3.234,3.234,0,0,1-2.153,3.005q-1.208.457-2.381.995a3.231,3.231,0,0,1-3.655-.59l-5.835-5.8a3.851,3.851,0,0,0-5.446.015l-9.447,9.5a3.852,3.852,0,0,0,.015,5.446l5.879,5.845a3.181,3.181,0,0,1,.681,3.505c-.356.836-.715,1.739-1.017,2.518a3.164,3.164,0,0,1-2.953,2.02l-8.308.021a3.851,3.851,0,0,0-3.841,3.86l.033,13.4a3.852,3.852,0,0,0,3.86,3.841l8.224-.021a3.241,3.241,0,0,1,3.015,2.148q.435,1.149.947,2.269a3.236,3.236,0,0,1-.6,3.656l-5.8,5.828a3.852,3.852,0,0,0,.011,5.447l9.494,9.455a3.851,3.851,0,0,0,5.446-.012l5.849-5.872a3.179,3.179,0,0,1,3.506-.678c.836.356,1.739.715,2.518,1.018a3.167,3.167,0,0,1,2.018,2.956l.014,8.307a3.85,3.85,0,0,0,3.857,3.844l13.4-.022a3.852,3.852,0,0,0,3.845-3.858l-.014-8.224a3.236,3.236,0,0,1,2.15-3.012q1.15-.435,2.27-.947a3.236,3.236,0,0,1,3.655.6l5.823,5.808a3.852,3.852,0,0,0,5.447-.006l9.463-9.486a3.853,3.853,0,0,0-.006-5.447l-5.867-5.851a3.181,3.181,0,0,1-.675-3.507C306.832-377.759,307.71-380.144,307.753-380.286Zm-53.324-13.941a18.99,18.99,0,0,1,25.53-14.285,19.143,19.143,0,0,1,11.824,21.122,18.991,18.991,0,0,1-25.53,14.284A19.145,19.145,0,0,1,254.429-394.227Z" transform="translate(-215.1 445.8)" fill="url(#linear-gradient)"/>
    </g>
    <g id="Group_98" data-name="Group 98" transform="translate(224.096 -430.209)">
      <path id="Path_850" data-name="Path 850" d="M248.49-399.077a3.181,3.181,0,0,1,.681,3.505c-.356.836-.715,1.739-1.017,2.518a3.162,3.162,0,0,1-.152.319,3.145,3.145,0,0,0,1.488-1.655c.3-.779.661-1.683,1.017-2.518a3.181,3.181,0,0,0-.681-3.505l-5.879-5.846a3.852,3.852,0,0,1-.015-5.446l8.191-8.238c-.026.025-.054.047-.079.072l-9.447,9.5a3.852,3.852,0,0,0,.015,5.446Z" transform="translate(-233.053 419.974)" fill="#066eff"/>
      <path id="Path_851" data-name="Path 851" d="M325.746-347.613a18.982,18.982,0,0,0,5.914-10.629,19.143,19.143,0,0,0-11.824-21.122,18.983,18.983,0,0,0-20.952,4.992,18.97,18.97,0,0,1,19.616-3.655,19.143,19.143,0,0,1,11.824,21.122A19.036,19.036,0,0,1,325.746-347.613Z" transform="translate(-262.636 399.725)" fill="#066eff"/>
      <path id="Path_852" data-name="Path 852" d="M366.318-415.474l4.531-4.534-.01.009-4.528,4.531Z" transform="translate(-297.383 420.008)" fill="#066eff"/>
      <path id="Path_853" data-name="Path 853" d="M244.616-311.129l-9.493-9.455a3.852,3.852,0,0,1-.011-5.446l5.8-5.828a3.235,3.235,0,0,0,.595-3.656q-.512-1.117-.947-2.27a3.24,3.24,0,0,0-3.014-2.148l-8.224.021a3.852,3.852,0,0,1-3.86-3.842l-.033-13.4a3.833,3.833,0,0,1,.546-1.979,3.847,3.847,0,0,0-1.882,3.315l.033,13.4a3.852,3.852,0,0,0,3.86,3.841l8.224-.021a3.241,3.241,0,0,1,3.015,2.148q.435,1.149.947,2.269a3.236,3.236,0,0,1-.6,3.656l-5.8,5.828a3.852,3.852,0,0,0,.011,5.447l9.494,9.455a3.85,3.85,0,0,0,5.446-.012l1.281-1.286A3.848,3.848,0,0,1,244.616-311.129Z" transform="translate(-224.096 388.636)" fill="#066eff"/>
      <path id="Path_854" data-name="Path 854" d="M364.157-267.427l-5.822-5.808a3.236,3.236,0,0,0-3.655-.6q-1.12.512-2.27.947a3.353,3.353,0,0,0-1.779,1.54,3.479,3.479,0,0,1,.443-.2q1.15-.435,2.27-.947a3.236,3.236,0,0,1,3.655.6l5.823,5.808a3.852,3.852,0,0,0,5.447-.006l1.3-1.305A3.851,3.851,0,0,1,364.157-267.427Z" transform="translate(-289.302 344.843)" fill="#066eff"/>
      <path id="Path_855" data-name="Path 855" d="M313.668-257.8l-13.4.022a3.85,3.85,0,0,1-3.857-3.844l-.014-8.307a3.167,3.167,0,0,0-2.018-2.955c-.778-.3-1.682-.663-2.518-1.018a3.179,3.179,0,0,0-3.506.678l-1.3,1.3a3.177,3.177,0,0,1,3.468-.646c.836.356,1.74.715,2.518,1.018a3.167,3.167,0,0,1,2.018,2.956l.014,8.307a3.85,3.85,0,0,0,3.857,3.844l13.4-.022a3.846,3.846,0,0,0,3.3-1.882A3.831,3.831,0,0,1,313.668-257.8Z" transform="translate(-256.542 344.849)" fill="#066eff"/>
    </g>
    <g id="Group_99" data-name="Group 99" transform="translate(241.831 -439.803)" opacity="0.5">
      <path id="Path_856" data-name="Path 856" d="M398.788-388.539a3.852,3.852,0,0,0-3.855-3.847l-8.223.007a3.237,3.237,0,0,1-3.011-2.152q-.433-1.151-.945-2.271a3.237,3.237,0,0,1,.6-3.656l5.813-5.819a3.851,3.851,0,0,0,0-5.445l-9.479-9.471a3.851,3.851,0,0,0-5.446,0l-1.326,1.327a3.85,3.85,0,0,1,5.436.006l9.478,9.471a3.85,3.85,0,0,1,0,5.445l-5.812,5.819a3.236,3.236,0,0,0-.6,3.655q.511,1.119.945,2.271a3.237,3.237,0,0,0,3.011,2.151l8.223-.007a3.852,3.852,0,0,1,3.855,3.847l.01,13.4a3.829,3.829,0,0,1-.546,1.973,3.844,3.844,0,0,0,1.882-3.309Z" transform="translate(-318.522 430.793)" fill="#c0cbfd"/>
      <path id="Path_857" data-name="Path 857" d="M306.545-438.467h13.4a3.852,3.852,0,0,1,3.852,3.852v8.3a3.167,3.167,0,0,0,2.014,2.96c.777.3,1.68.664,2.516,1.022a3.178,3.178,0,0,0,3.507-.672l1.329-1.33a3.178,3.178,0,0,1-3.5.667c-.836-.357-1.739-.72-2.516-1.022a3.167,3.167,0,0,1-2.014-2.959v-8.3a3.851,3.851,0,0,0-3.851-3.852h-13.4a3.845,3.845,0,0,0-3.3,1.882A3.827,3.827,0,0,1,306.545-438.467Z" transform="translate(-283.305 439.803)" fill="#c0cbfd"/>
      <path id="Path_858" data-name="Path 858" d="M316.369-338.185a18.972,18.972,0,0,1-19.616,3.656,19.145,19.145,0,0,1-11.824-21.122,19.04,19.04,0,0,1,4.579-9.294,18.984,18.984,0,0,0-5.915,10.629,19.145,19.145,0,0,0,11.824,21.122A18.983,18.983,0,0,0,316.369-338.185Z" transform="translate(-272.33 401.226)" fill="#c0cbfd"/>
      <path id="Path_859" data-name="Path 859" d="M266.053-419.68l5.836,5.8a3.231,3.231,0,0,0,3.655.59q1.173-.536,2.381-.995a3.349,3.349,0,0,0,1.784-1.542,3.47,3.47,0,0,1-.448.206q-1.208.457-2.381.995a3.231,3.231,0,0,1-3.655-.59l-5.835-5.8a3.851,3.851,0,0,0-5.446.015l-1.256,1.264A3.848,3.848,0,0,1,266.053-419.68Z" transform="translate(-260.687 430.699)" fill="#c0cbfd"/>
      <path id="Path_860" data-name="Path 860" d="M390.575-308.967a3.181,3.181,0,0,1-.675-3.507c.467-1.095,1.436-3.637,1.777-4.531l-.612.014c-.043.142-1.646,3.849-2.5,5.853a3.183,3.183,0,0,0,.675,3.507l5.867,5.851a3.852,3.852,0,0,1,.006,5.446l-8.161,8.181c.011-.011.023-.02.034-.031l9.463-9.486a3.853,3.853,0,0,0-.006-5.447Z" transform="translate(-325.754 376.522)" fill="#c0cbfd"/>
      <path id="Path_861" data-name="Path 861" d="M279.368-266.754l-4.568,4.586c.018-.017.038-.032.055-.05l4.551-4.569C279.394-266.774,279.38-266.766,279.368-266.754Z" transform="translate(-267.96 350.643)" fill="#97aafc"/>
    </g>
  </g>
</svg>
