<svg xmlns="http://www.w3.org/2000/svg" xmlns:xlink="http://www.w3.org/1999/xlink" width="47" height="46" viewBox="0 0 47 46">
  <defs>
    <linearGradient id="linear-gradient" x1="0.302" y1="0.171" x2="0.063" y2="0.615" gradientUnits="objectBoundingBox">
      <stop offset="0" stop-color="#6097e3"/>
      <stop offset="1" stop-color="#233176"/>
    </linearGradient>
    <linearGradient id="linear-gradient-2" x1="0.926" y1="-0.04" x2="0.234" y2="1.053" xlink:href="#linear-gradient"/>
  </defs>
  <g id="Group_697" data-name="Group 697" transform="translate(-991 -3140.619)">
    <g id="Group_93" data-name="Group 93" transform="translate(990 3138.619)">
      <rect id="Rectangle_40" data-name="Rectangle 40" width="47" height="46" rx="15" transform="translate(1 2)" fill="url(#linear-gradient)"/>
      <rect id="Rectangle_42" data-name="Rectangle 42" width="45" height="45" rx="15" transform="translate(2 2)" fill="url(#linear-gradient-2)"/>
    </g>
    <path id="facebook" d="M8.686,25.769H3.954V14.147H0V9.595H3.954V6.24A5.868,5.868,0,0,1,5.571,1.807,5.955,5.955,0,0,1,9.884.249a28.286,28.286,0,0,1,3.535.18V4.442l-2.456.06a2.355,2.355,0,0,0-1.8.539,2.371,2.371,0,0,0-.479,1.617V9.593h4.552l-.6,4.552H8.686V25.767Z" transform="translate(1007.791 3150.031)" fill="#fff"/>
  </g>
</svg>
