<svg xmlns="http://www.w3.org/2000/svg" xmlns:xlink="http://www.w3.org/1999/xlink" width="73.173" height="82.11" viewBox="0 0 73.173 82.11">
  <defs>
    <linearGradient id="linear-gradient" x1="-0.004" y1="0.882" x2="0.883" y2="0.114" gradientUnits="objectBoundingBox">
      <stop offset="0" stop-color="#ff36ab"/>
      <stop offset="0.431" stop-color="#ff4eba"/>
      <stop offset="1" stop-color="#ff74d4"/>
    </linearGradient>
  </defs>
  <g id="heart" transform="translate(0)">
    <g id="Group_48" data-name="Group 48" transform="translate(0 0)">
      <path id="Path_391" data-name="Path 391" d="M1513.063,271.244h-14.355l-7.648,8.295a1.994,1.994,0,0,1-2.936,0l-7.6-8.291h-14.408A13.113,13.113,0,0,1,1453,258.131V211.184a13.113,13.113,0,0,1,13.113-13.113h46.947a13.113,13.113,0,0,1,13.113,13.113v46.947A13.113,13.113,0,0,1,1513.063,271.244Z" transform="translate(-1453.003 -198.071)" fill="url(#linear-gradient)"/>
      <g id="Group_43" data-name="Group 43" transform="translate(3.691)">
        <path id="Path_392" data-name="Path 392" d="M1551.969,375.485l-7.526,8.162a1.982,1.982,0,0,0,.185-.174l7.365-7.988Z" transform="translate(-1510.262 -302.006)" fill="#ff86cd"/>
        <path id="Path_393" data-name="Path 393" d="M1518.283,198.071h-46.948a13.072,13.072,0,0,0-9.422,4,13.068,13.068,0,0,1,9.115-3.691h46.948a13.113,13.113,0,0,1,13.113,13.113v46.947a13.065,13.065,0,0,1-3.691,9.115,13.069,13.069,0,0,0,4-9.422V211.184A13.113,13.113,0,0,0,1518.283,198.071Z" transform="translate(-1461.914 -198.071)" fill="#ff86cd"/>
      </g>
      <g id="Group_44" data-name="Group 44">
        <path id="Path_394" data-name="Path 394" d="M1453.617,258.131V211.184a13.113,13.113,0,0,1,13.113-13.113h-.614A13.113,13.113,0,0,0,1453,211.184v46.947a13.113,13.113,0,0,0,13.113,13.113h.614A13.113,13.113,0,0,1,1453.617,258.131Z" transform="translate(-1453.003 -198.071)" fill="#bf2980"/>
        <path id="Path_395" data-name="Path 395" d="M1527.665,383.035l-7.6-8.291h-.614l7.6,8.291a1.989,1.989,0,0,0,1.777.62A1.981,1.981,0,0,1,1527.665,383.035Z" transform="translate(-1491.93 -301.571)" fill="#bf2980"/>
      </g>
      <g id="Group_45" data-name="Group 45" transform="translate(13.768 19.982)" opacity="0.3" style="mix-blend-mode: multiply;isolation: isolate">
        <path id="Path_396" data-name="Path 396" d="M1529.893,257.572a12.835,12.835,0,0,0-12.158-11.245,12.692,12.692,0,0,0-9.62,3.826,12.752,12.752,0,0,0-21.869,8.925c0,3.433,1.764,6.219,3.573,8.84,3.043,4.409,12.333,12.891,16.355,16.481a2.815,2.815,0,0,0,3.766-.015c4.185-3.788,14.177-13.017,17.561-17.764A12.822,12.822,0,0,0,1529.893,257.572Z" transform="translate(-1486.246 -246.317)" fill="#fff" opacity="0"/>
        <path id="Path_397" data-name="Path 397" d="M1498.924,246.65a12.661,12.661,0,0,1,6.5,1.506,12.078,12.078,0,0,1,2.767,2.114,12.694,12.694,0,0,1,1.972-1.583,12.936,12.936,0,0,1,2.256-1.234,12.66,12.66,0,0,1,8.148-.577q.207.055.411.117a12.686,12.686,0,0,1,6.594,19.681c-3.372,4.73-13.321,13.922-17.51,17.716a2.833,2.833,0,0,1-3.279.386,2.564,2.564,0,0,1-.466-.331c-4.1-3.659-13.325-12.093-16.348-16.472-1.784-2.584-3.523-5.33-3.531-8.711A12.657,12.657,0,0,1,1498.924,246.65Z" transform="translate(-1486.361 -246.4)" fill="#fbfbfb" opacity="0.02"/>
        <path id="Path_398" data-name="Path 398" d="M1498.836,246.983a12.611,12.611,0,0,1,6.58,1.27,11.486,11.486,0,0,1,2.859,2.133,12.5,12.5,0,0,1,1.968-1.515,13.182,13.182,0,0,1,2.247-1.245,12.594,12.594,0,0,1,8.132-.627q.207.054.411.115a12.631,12.631,0,0,1,6.619,19.615c-3.36,4.713-13.265,13.869-17.459,17.668a2.854,2.854,0,0,1-3.258.42,2.36,2.36,0,0,1-.466-.325c-4.177-3.728-13.337-12.113-16.34-16.463-1.759-2.548-3.473-5.253-3.49-8.581A12.558,12.558,0,0,1,1498.836,246.983Z" transform="translate(-1486.476 -246.482)" fill="#f6f6f6" opacity="0.039"/>
        <path id="Path_399" data-name="Path 399" d="M1498.75,247.314a12.511,12.511,0,0,1,6.656,1.035,11,11,0,0,1,2.95,2.153,12.311,12.311,0,0,1,1.964-1.448,13.41,13.41,0,0,1,2.237-1.257,12.518,12.518,0,0,1,8.116-.677c.138.035.276.072.412.112a12.577,12.577,0,0,1,6.644,19.549c-3.348,4.7-13.21,13.816-17.408,17.62a2.875,2.875,0,0,1-3.237.453,2.21,2.21,0,0,1-.466-.318c-4.255-3.8-13.35-12.133-16.332-16.455-1.733-2.512-3.423-5.177-3.448-8.452C1486.777,252.895,1492.136,247.865,1498.75,247.314Z" transform="translate(-1486.591 -246.563)" fill="#f2f2f2" opacity="0.059"/>
        <path id="Path_400" data-name="Path 400" d="M1498.662,247.645a12.327,12.327,0,0,1,6.731.8,10.539,10.539,0,0,1,3.041,2.172,12.185,12.185,0,0,1,1.96-1.38,13.66,13.66,0,0,1,2.228-1.268,12.46,12.46,0,0,1,8.1-.728c.138.035.275.071.412.111a12.522,12.522,0,0,1,6.669,19.483c-3.335,4.679-13.154,13.762-17.357,17.572a2.9,2.9,0,0,1-3.217.486,1.954,1.954,0,0,1-.242-.139,1.99,1.99,0,0,1-.224-.173c-4.333-3.867-13.362-12.154-16.324-16.446-1.708-2.475-3.373-5.1-3.407-8.323C1486.953,253.183,1492.2,248.375,1498.662,247.645Z" transform="translate(-1486.705 -246.644)" fill="#eeedee" opacity="0.078"/>
        <path id="Path_401" data-name="Path 401" d="M1498.576,247.975a12.161,12.161,0,0,1,6.807.563,10.218,10.218,0,0,1,3.132,2.192,12.041,12.041,0,0,1,1.956-1.311,13.912,13.912,0,0,1,2.218-1.28,12.388,12.388,0,0,1,8.083-.778q.208.051.412.108a12.469,12.469,0,0,1,6.694,19.417c-3.324,4.662-13.1,13.709-17.307,17.524a2.926,2.926,0,0,1-3.2.519,1.788,1.788,0,0,1-.242-.134,1.846,1.846,0,0,1-.224-.171c-4.41-3.936-13.374-12.175-16.317-16.437-1.683-2.439-3.323-5.024-3.366-8.193C1487.13,253.47,1492.279,248.88,1498.576,247.975Z" transform="translate(-1486.82 -246.724)" fill="#e9e9e9" opacity="0.098"/>
        <path id="Path_402" data-name="Path 402" d="M1498.489,248.3a11.972,11.972,0,0,1,6.882.328,9.934,9.934,0,0,1,3.224,2.212,11.91,11.91,0,0,1,1.952-1.244,14.17,14.17,0,0,1,2.208-1.292,12.318,12.318,0,0,1,8.066-.828q.207.05.412.106a12.415,12.415,0,0,1,6.719,19.35c-3.311,4.645-13.044,13.655-17.256,17.476a2.955,2.955,0,0,1-3.175.552,1.641,1.641,0,0,1-.241-.129,1.719,1.719,0,0,1-.224-.169c-4.488-4.006-13.387-12.2-16.31-16.429-1.658-2.4-3.273-4.947-3.324-8.064C1487.307,253.757,1492.357,249.378,1498.489,248.3Z" transform="translate(-1486.934 -246.804)" fill="#e5e5e5" opacity="0.118"/>
        <path id="Path_403" data-name="Path 403" d="M1498.4,248.634c2.124-.44,4.555-.872,6.958.092a9.706,9.706,0,0,1,3.315,2.231,11.784,11.784,0,0,1,1.948-1.176,14.517,14.517,0,0,1,2.2-1.3,12.109,12.109,0,0,1,5.27-1.2,12.235,12.235,0,0,1,2.78.317q.207.048.412.1a12.361,12.361,0,0,1,6.743,19.285c-3.3,4.628-12.988,13.6-17.2,17.428a2.987,2.987,0,0,1-3.154.586,1.664,1.664,0,0,1-.465-.292c-4.566-4.075-13.4-12.216-16.3-16.42-1.633-2.365-3.223-4.871-3.283-7.934C1487.482,254.043,1492.439,249.87,1498.4,248.634Z" transform="translate(-1487.048 -246.883)" fill="#e1e0e0" opacity="0.137"/>
        <path id="Path_404" data-name="Path 404" d="M1498.313,248.963a9.281,9.281,0,0,1,7.033-.144,9.518,9.518,0,0,1,3.406,2.251,11.747,11.747,0,0,1,1.944-1.108,14.745,14.745,0,0,1,2.189-1.315,12.024,12.024,0,0,1,5.255-1.23,12.2,12.2,0,0,1,2.779.3q.208.047.413.1a12.308,12.308,0,0,1,6.769,19.218c-3.287,4.611-12.933,13.549-17.154,17.381a3.023,3.023,0,0,1-3.134.619,1.436,1.436,0,0,1-.241-.119,1.5,1.5,0,0,1-.224-.166c-4.643-4.144-13.412-12.236-16.294-16.411-1.607-2.329-3.173-4.794-3.241-7.805A11.175,11.175,0,0,1,1498.313,248.963Z" transform="translate(-1487.162 -246.961)" fill="#dcdcdc" opacity="0.157"/>
        <path id="Path_405" data-name="Path 405" d="M1498.225,249.291a8.994,8.994,0,0,1,7.109-.38,9.359,9.359,0,0,1,3.5,2.27c.5-.506,1.353-.642,1.94-1.04a15.1,15.1,0,0,1,2.179-1.326,11.95,11.95,0,0,1,5.239-1.265,12.156,12.156,0,0,1,2.779.286q.208.047.413.1a12.255,12.255,0,0,1,6.794,19.152c-3.274,4.594-12.878,13.5-17.1,17.333a3.061,3.061,0,0,1-3.113.652,1.324,1.324,0,0,1-.24-.114,1.424,1.424,0,0,1-.224-.164c-4.721-4.214-13.425-12.257-16.286-16.4-1.583-2.293-3.123-4.717-3.2-7.676A10.981,10.981,0,0,1,1498.225,249.291Z" transform="translate(-1487.276 -247.039)" fill="#d8d7d8" opacity="0.176"/>
        <path id="Path_406" data-name="Path 406" d="M1498.136,249.618a8.743,8.743,0,0,1,7.185-.615,9.226,9.226,0,0,1,3.589,2.29c.483-.494,1.363-.584,1.936-.972a15.421,15.421,0,0,1,2.169-1.338,11.888,11.888,0,0,1,5.223-1.3,12.11,12.11,0,0,1,2.778.27c.138.03.276.063.412.1a12.2,12.2,0,0,1,6.818,19.086c-3.262,4.576-12.822,13.442-17.052,17.285a3.1,3.1,0,0,1-3.092.685,1.231,1.231,0,0,1-.24-.109,1.357,1.357,0,0,1-.224-.162c-4.8-4.283-13.437-12.277-16.279-16.394-1.558-2.256-3.073-4.641-3.159-7.546A10.788,10.788,0,0,1,1498.136,249.618Z" transform="translate(-1487.389 -247.116)" fill="#d4d3d3" opacity="0.196"/>
        <path id="Path_407" data-name="Path 407" d="M1498.048,249.945a8.522,8.522,0,0,1,7.26-.851,9.124,9.124,0,0,1,3.681,2.309c.471-.482,1.373-.525,1.932-.9a15.845,15.845,0,0,1,2.16-1.349,11.813,11.813,0,0,1,5.208-1.334,12.033,12.033,0,0,1,2.776.255q.208.044.413.095a12.15,12.15,0,0,1,6.844,19.02c-3.25,4.559-12.767,13.388-17,17.236a3.148,3.148,0,0,1-3.071.719,1.192,1.192,0,0,1-.24-.1,1.257,1.257,0,0,1-.223-.16c-4.876-4.352-13.45-12.3-16.271-16.385-1.532-2.22-3.023-4.565-3.118-7.417A10.6,10.6,0,0,1,1498.048,249.945Z" transform="translate(-1487.502 -247.193)" fill="#d0cfcf" opacity="0.216"/>
        <path id="Path_408" data-name="Path 408" d="M1497.959,250.271a8.332,8.332,0,0,1,7.336-1.087,9.03,9.03,0,0,1,3.772,2.328c.46-.47,1.383-.467,1.928-.836a16.2,16.2,0,0,1,2.15-1.361,11.748,11.748,0,0,1,5.193-1.369,12.011,12.011,0,0,1,2.776.239c.138.029.276.059.413.093a12.1,12.1,0,0,1,6.869,18.954c-3.238,4.542-12.712,13.335-16.95,17.188a3.2,3.2,0,0,1-3.051.752,1.126,1.126,0,0,1-.239-.1,1.187,1.187,0,0,1-.223-.158c-4.954-4.422-13.463-12.319-16.264-16.377-1.507-2.183-2.973-4.488-3.076-7.288A10.408,10.408,0,0,1,1497.959,250.271Z" transform="translate(-1487.615 -247.269)" fill="#cbcacb" opacity="0.235"/>
        <path id="Path_409" data-name="Path 409" d="M1497.87,250.6a8.17,8.17,0,0,1,7.411-1.322,8.961,8.961,0,0,1,3.863,2.348c.448-.458,1.393-.408,1.924-.768a16.59,16.59,0,0,1,2.141-1.372,11.669,11.669,0,0,1,5.177-1.4,11.963,11.963,0,0,1,2.775.223c.138.028.276.058.413.091a12.047,12.047,0,0,1,6.894,18.888c-3.226,4.525-12.657,13.281-16.9,17.14a3.25,3.25,0,0,1-3.03.785,1.046,1.046,0,0,1-.239-.1,1.1,1.1,0,0,1-.224-.156c-5.032-4.491-13.475-12.339-16.256-16.368-1.482-2.147-2.923-4.411-3.035-7.158A10.22,10.22,0,0,1,1497.87,250.6Z" transform="translate(-1487.728 -247.344)" fill="#c7c6c6" opacity="0.255"/>
        <path id="Path_410" data-name="Path 410" d="M1497.782,250.923a8.033,8.033,0,0,1,7.487-1.559,8.908,8.908,0,0,1,3.955,2.368c.436-.446,1.4-.35,1.92-.7a17.036,17.036,0,0,1,2.131-1.384,11.609,11.609,0,0,1,5.162-1.438,11.932,11.932,0,0,1,2.774.208q.207.041.413.089a11.994,11.994,0,0,1,6.919,18.821c-3.214,4.508-12.6,13.228-16.848,17.093a3.308,3.308,0,0,1-3.009.818.984.984,0,0,1-.239-.09,1.061,1.061,0,0,1-.224-.154c-5.109-4.56-13.487-12.36-16.248-16.359-1.457-2.111-2.867-4.336-2.993-7.029A10.042,10.042,0,0,1,1497.782,250.923Z" transform="translate(-1487.841 -247.419)" fill="#c3c2c2" opacity="0.275"/>
        <path id="Path_411" data-name="Path 411" d="M1497.693,251.247a7.921,7.921,0,0,1,7.563-1.795,8.856,8.856,0,0,1,4.046,2.387c.424-.434,1.413-.291,1.916-.632a17.479,17.479,0,0,1,2.121-1.4,11.537,11.537,0,0,1,5.146-1.473,11.863,11.863,0,0,1,2.773.192c.138.027.276.055.413.087a11.943,11.943,0,0,1,6.944,18.755c-3.2,4.491-12.545,13.175-16.8,17.045a3.372,3.372,0,0,1-2.988.852.909.909,0,0,1-.239-.085,1.026,1.026,0,0,1-.224-.152c-5.187-4.63-13.5-12.38-16.24-16.351-1.432-2.074-2.817-4.259-2.952-6.9A9.857,9.857,0,0,1,1497.693,251.247Z" transform="translate(-1487.953 -247.494)" fill="#bebdbd" opacity="0.294"/>
        <path id="Path_412" data-name="Path 412" d="M1497.6,251.571a7.831,7.831,0,0,1,7.639-2.03,8.821,8.821,0,0,1,4.137,2.407c.412-.422,1.423-.233,1.912-.565a17.943,17.943,0,0,1,2.112-1.407,11.479,11.479,0,0,1,5.131-1.508,11.835,11.835,0,0,1,2.772.177c.138.026.276.053.413.084a11.955,11.955,0,0,1,9.222,10.186,12.079,12.079,0,0,1-2.253,8.5c-3.19,4.474-12.49,13.121-16.747,17a3.442,3.442,0,0,1-2.968.885.876.876,0,0,1-.238-.081.963.963,0,0,1-.223-.15c-5.265-4.7-13.513-12.4-16.233-16.342-1.406-2.038-2.767-4.182-2.911-6.77A9.676,9.676,0,0,1,1497.6,251.571Z" transform="translate(-1488.065 -247.567)" fill="#bab9b9" opacity="0.314"/>
        <path id="Path_413" data-name="Path 413" d="M1497.512,251.894a7.758,7.758,0,0,1,7.714-2.266,8.8,8.8,0,0,1,4.228,2.427c.4-.41,1.433-.175,1.908-.5a18.489,18.489,0,0,1,2.1-1.419,11.421,11.421,0,0,1,5.115-1.542,11.812,11.812,0,0,1,2.772.161q.207.038.413.082A11.9,11.9,0,0,1,1531,258.994a12.027,12.027,0,0,1-2.244,8.469c-3.177,4.456-12.435,13.068-16.7,16.949a3.516,3.516,0,0,1-2.947.918.833.833,0,0,1-.238-.076.931.931,0,0,1-.223-.149c-5.343-4.768-13.525-12.421-16.226-16.334-1.381-2-2.716-4.106-2.869-6.641A9.5,9.5,0,0,1,1497.512,251.894Z" transform="translate(-1488.176 -247.64)" fill="#b6b4b5" opacity="0.333"/>
        <path id="Path_414" data-name="Path 414" d="M1497.422,252.217a7.705,7.705,0,0,1,7.789-2.5,8.776,8.776,0,0,1,4.319,2.446c.389-.4,1.443-.116,1.9-.429a18.9,18.9,0,0,1,2.092-1.43,11.354,11.354,0,0,1,5.1-1.577,11.739,11.739,0,0,1,2.771.145q.207.037.414.08a11.849,11.849,0,0,1,9.254,10.122,11.982,11.982,0,0,1-2.235,8.435c-3.165,4.439-12.38,13.014-16.645,16.9a3.6,3.6,0,0,1-2.926.951.789.789,0,0,1-.238-.071.882.882,0,0,1-.223-.147c-5.42-4.837-13.538-12.442-16.218-16.324-1.356-1.965-2.667-4.029-2.828-6.512A9.317,9.317,0,0,1,1497.422,252.217Z" transform="translate(-1488.287 -247.713)" fill="#b1b0b0" opacity="0.353"/>
        <path id="Path_415" data-name="Path 415" d="M1497.33,252.539a7.668,7.668,0,0,1,7.865-2.737,8.765,8.765,0,0,1,4.411,2.466c.377-.386,1.453-.058,1.9-.361a19.557,19.557,0,0,1,2.083-1.442,11.3,11.3,0,0,1,5.084-1.612,11.69,11.69,0,0,1,2.77.13c.138.024.276.049.414.078a11.8,11.8,0,0,1,9.271,10.09,11.932,11.932,0,0,1-2.227,8.4c-3.153,4.422-12.324,12.961-16.594,16.853a3.683,3.683,0,0,1-2.905.984.753.753,0,0,1-.237-.066.862.862,0,0,1-.223-.145c-5.5-4.907-13.55-12.462-16.21-16.316-1.331-1.928-2.616-3.953-2.786-6.382A9.143,9.143,0,0,1,1497.33,252.539Z" transform="translate(-1488.398 -247.785)" fill="#adacac" opacity="0.373"/>
        <path id="Path_416" data-name="Path 416" d="M1497.239,252.861a7.646,7.646,0,0,1,7.941-2.973,8.764,8.764,0,0,1,4.5,2.485c.365-.374,1.463,0,1.9-.293a20.142,20.142,0,0,1,2.073-1.453,11.237,11.237,0,0,1,5.069-1.646,11.64,11.64,0,0,1,2.769.114c.138.023.276.048.414.075a11.746,11.746,0,0,1,9.287,10.058,11.886,11.886,0,0,1-2.218,8.366c-3.141,4.406-12.269,12.908-16.543,16.8a3.781,3.781,0,0,1-2.884,1.018.718.718,0,0,1-.237-.061.807.807,0,0,1-.223-.143c-5.575-4.976-13.563-12.483-16.2-16.307-1.306-1.892-2.566-3.876-2.745-6.253A8.969,8.969,0,0,1,1497.239,252.861Z" transform="translate(-1488.507 -247.857)" fill="#a9a7a8" opacity="0.392"/>
        <path id="Path_417" data-name="Path 417" d="M1497.146,253.182a7.638,7.638,0,0,1,8.016-3.209,8.764,8.764,0,0,1,4.593,2.5c.354-.361,1.473.059,1.892-.225a20.9,20.9,0,0,1,2.063-1.465,11.188,11.188,0,0,1,5.054-1.681,11.61,11.61,0,0,1,2.768.1c.138.022.277.047.414.074a11.7,11.7,0,0,1,9.3,10.026,11.839,11.839,0,0,1-2.209,8.332c-3.129,4.389-12.214,12.854-16.492,16.757a3.885,3.885,0,0,1-2.864,1.051.672.672,0,0,1-.237-.057.771.771,0,0,1-.223-.141c-5.653-5.045-13.575-12.5-16.195-16.3-1.281-1.855-2.516-3.8-2.7-6.124C1489.935,257.987,1493,253.946,1497.146,253.182Z" transform="translate(-1488.617 -247.927)" fill="#a4a3a3" opacity="0.412"/>
        <path id="Path_418" data-name="Path 418" d="M1497.053,253.5a7.641,7.641,0,0,1,8.092-3.445,8.777,8.777,0,0,1,4.685,2.524c.342-.349,1.483.118,1.888-.157a21.609,21.609,0,0,1,2.054-1.477,11.13,11.13,0,0,1,5.038-1.715,11.559,11.559,0,0,1,2.767.083q.208.032.414.071a11.645,11.645,0,0,1,9.32,9.994,11.791,11.791,0,0,1-2.2,8.3c-3.116,4.371-12.158,12.8-16.441,16.709a4,4,0,0,1-2.843,1.084.646.646,0,0,1-.236-.052.747.747,0,0,1-.223-.139c-5.731-5.115-13.588-12.524-16.187-16.29a12.675,12.675,0,0,1-2.662-5.994C1490.106,258.265,1493.045,254.3,1497.053,253.5Z" transform="translate(-1488.726 -247.998)" fill="#a09e9f" opacity="0.431"/>
        <path id="Path_419" data-name="Path 419" d="M1496.96,253.823a7.656,7.656,0,0,1,8.167-3.68,8.79,8.79,0,0,1,4.776,2.543c.33-.337,1.493.176,1.884-.089a22.414,22.414,0,0,1,2.044-1.488,11.08,11.08,0,0,1,5.023-1.751,11.518,11.518,0,0,1,2.767.068c.138.021.276.043.414.069a11.6,11.6,0,0,1,9.336,9.962,11.741,11.741,0,0,1-2.192,8.264c-3.1,4.354-12.1,12.747-16.39,16.661a4.12,4.12,0,0,1-2.822,1.117.624.624,0,0,1-.236-.047.72.72,0,0,1-.223-.138c-5.808-5.184-13.6-12.545-16.18-16.281a12.562,12.562,0,0,1-2.62-5.865C1490.277,258.542,1493.089,254.659,1496.96,253.823Z" transform="translate(-1488.834 -248.068)" fill="#9c9a9a" opacity="0.451"/>
        <path id="Path_420" data-name="Path 420" d="M1496.866,254.143a7.681,7.681,0,0,1,8.243-3.916,8.808,8.808,0,0,1,4.867,2.563c.318-.325,1.5.235,1.88-.021a23.172,23.172,0,0,1,2.034-1.5,11.023,11.023,0,0,1,5.007-1.785,11.463,11.463,0,0,1,2.766.052c.138.02.277.042.415.067a11.546,11.546,0,0,1,9.352,9.93,11.7,11.7,0,0,1-2.184,8.23c-3.092,4.337-12.047,12.694-16.339,16.613a4.256,4.256,0,0,1-2.8,1.151.6.6,0,0,1-.236-.042.7.7,0,0,1-.223-.135c-5.886-5.253-13.613-12.565-16.172-16.273a12.459,12.459,0,0,1-2.579-5.735C1490.447,258.818,1493.133,255.015,1496.866,254.143Z" transform="translate(-1488.941 -248.137)" fill="#979696" opacity="0.471"/>
        <path id="Path_421" data-name="Path 421" d="M1496.771,254.462a7.716,7.716,0,0,1,8.318-4.152,8.827,8.827,0,0,1,4.958,2.582c.307-.313,1.513.293,1.876.047a24.075,24.075,0,0,1,2.024-1.511,10.986,10.986,0,0,1,4.992-1.82,11.414,11.414,0,0,1,2.765.036q.207.029.415.065a11.5,11.5,0,0,1,9.369,9.9,11.648,11.648,0,0,1-2.175,8.2c-3.08,4.32-11.991,12.64-16.288,16.565a4.4,4.4,0,0,1-2.781,1.184.577.577,0,0,1-.235-.037.671.671,0,0,1-.223-.134c-5.964-5.323-13.626-12.586-16.165-16.264a12.36,12.36,0,0,1-2.537-5.607C1490.616,259.094,1493.176,255.37,1496.771,254.462Z" transform="translate(-1489.048 -248.206)" fill="#939192" opacity="0.49"/>
        <path id="Path_422" data-name="Path 422" d="M1496.674,254.78a7.759,7.759,0,0,1,8.394-4.388,8.853,8.853,0,0,1,5.05,2.6c.295-.3,1.523.351,1.872.114a24.943,24.943,0,0,1,2.015-1.522,10.94,10.94,0,0,1,4.976-1.855,11.386,11.386,0,0,1,2.764.021q.207.028.415.063a11.448,11.448,0,0,1,9.385,9.866,11.6,11.6,0,0,1-2.166,8.162c-3.068,4.3-11.936,12.587-16.238,16.517a4.566,4.566,0,0,1-2.76,1.217.555.555,0,0,1-.235-.032.646.646,0,0,1-.223-.132c-6.041-5.392-13.638-12.606-16.157-16.255a12.271,12.271,0,0,1-2.5-5.477C1490.784,259.369,1493.218,255.725,1496.674,254.78Z" transform="translate(-1489.153 -248.274)" fill="#8f8d8d" opacity="0.51"/>
        <path id="Path_423" data-name="Path 423" d="M1496.577,255.1a7.809,7.809,0,0,1,8.47-4.623,8.883,8.883,0,0,1,5.141,2.622c.283-.289,1.533.41,1.868.183s1.629-1.378,2.005-1.534a10.89,10.89,0,0,1,4.961-1.889,11.311,11.311,0,0,1,2.762,0c.138.018.277.038.415.06a11.4,11.4,0,0,1,9.4,9.833,11.55,11.55,0,0,1-2.157,8.128c-3.055,4.286-11.881,12.534-16.187,16.469a4.74,4.74,0,0,1-2.739,1.25.532.532,0,0,1-.235-.027.629.629,0,0,1-.223-.13c-6.119-5.461-13.651-12.627-16.149-16.247a12.172,12.172,0,0,1-2.455-5.347C1490.951,259.644,1493.26,256.079,1496.577,255.1Z" transform="translate(-1489.258 -248.342)" fill="#8b8889" opacity="0.529"/>
        <path id="Path_424" data-name="Path 424" d="M1496.479,255.416a7.867,7.867,0,0,1,8.545-4.859,8.917,8.917,0,0,1,5.232,2.641c.271-.277,1.543.468,1.864.251s1.635-1.4,2-1.546a10.849,10.849,0,0,1,4.945-1.924,11.288,11.288,0,0,1,2.762-.01c.138.017.277.036.415.058a11.352,11.352,0,0,1,9.417,9.8,11.5,11.5,0,0,1-2.149,8.094c-3.043,4.268-11.825,12.48-16.135,16.421a4.938,4.938,0,0,1-2.719,1.283.511.511,0,0,1-.234-.022.6.6,0,0,1-.223-.128c-6.2-5.53-13.663-12.647-16.141-16.238a12.092,12.092,0,0,1-2.413-5.219C1491.117,259.918,1493.3,256.433,1496.479,255.416Z" transform="translate(-1489.361 -248.409)" fill="#868485" opacity="0.549"/>
        <path id="Path_425" data-name="Path 425" d="M1496.379,255.733a7.93,7.93,0,0,1,8.621-5.095,8.95,8.95,0,0,1,5.323,2.661c.259-.265,1.553.527,1.86.318s1.641-1.414,1.986-1.557a10.8,10.8,0,0,1,4.93-1.959,11.22,11.22,0,0,1,2.761-.026q.207.024.415.056a11.3,11.3,0,0,1,9.434,9.769,11.458,11.458,0,0,1-2.14,8.06c-3.031,4.251-11.77,12.427-16.085,16.373a5.151,5.151,0,0,1-2.7,1.317.5.5,0,0,1-.234-.017.592.592,0,0,1-.223-.126c-6.274-5.6-13.676-12.668-16.134-16.23a12.025,12.025,0,0,1-2.372-5.089C1491.281,260.192,1493.338,256.787,1496.379,255.733Z" transform="translate(-1489.463 -248.476)" fill="#828080" opacity="0.569"/>
        <path id="Path_426" data-name="Path 426" d="M1496.278,256.049a8,8,0,0,1,8.7-5.33,8.99,8.99,0,0,1,5.415,2.68c.248-.253,1.563.585,1.856.386s1.647-1.433,1.976-1.569a10.764,10.764,0,0,1,4.915-1.993,11.207,11.207,0,0,1,2.76-.042c.138.016.277.034.415.054a11.258,11.258,0,0,1,9.45,9.737,11.407,11.407,0,0,1-2.131,8.026c-3.019,4.234-11.715,12.373-16.034,16.325a5.392,5.392,0,0,1-2.677,1.35.48.48,0,0,1-.234-.013.56.56,0,0,1-.223-.124c-6.352-5.669-13.688-12.689-16.127-16.221a11.95,11.95,0,0,1-2.331-4.96C1491.444,260.465,1493.375,257.14,1496.278,256.049Z" transform="translate(-1489.563 -248.542)" fill="#7e7b7c" opacity="0.588"/>
        <path id="Path_427" data-name="Path 427" d="M1496.175,256.365a8.077,8.077,0,0,1,8.772-5.566,9.03,9.03,0,0,1,5.506,2.7c.236-.241,1.573.644,1.852.454s1.653-1.45,1.967-1.58a10.719,10.719,0,0,1,4.9-2.028,11.14,11.14,0,0,1,2.759-.058c.138.015.277.032.415.052a11.211,11.211,0,0,1,9.466,9.7,11.357,11.357,0,0,1-2.123,7.992c-3.007,4.217-11.659,12.32-15.982,16.277a5.657,5.657,0,0,1-2.656,1.383.467.467,0,0,1-.234-.008.546.546,0,0,1-.223-.123c-6.43-5.738-13.7-12.709-16.119-16.212a11.9,11.9,0,0,1-2.29-4.83C1491.6,260.738,1493.411,257.492,1496.175,256.365Z" transform="translate(-1489.662 -248.608)" fill="#797777" opacity="0.608"/>
        <path id="Path_428" data-name="Path 428" d="M1496.071,256.681a8.157,8.157,0,0,1,8.847-5.8,9.072,9.072,0,0,1,5.6,2.719c.224-.229,1.583.7,1.848.522s1.659-1.469,1.957-1.592a10.684,10.684,0,0,1,4.884-2.063,11.112,11.112,0,0,1,2.759-.073c.138.014.277.03.415.049a11.166,11.166,0,0,1,9.483,9.673,11.31,11.31,0,0,1-2.114,7.958c-2.994,4.2-11.6,12.266-15.932,16.229a5.953,5.953,0,0,1-2.636,1.416.446.446,0,0,1-.233,0,.531.531,0,0,1-.223-.121c-6.507-5.808-13.713-12.73-16.111-16.2a11.851,11.851,0,0,1-2.248-4.7C1491.764,261.01,1493.444,257.844,1496.071,256.681Z" transform="translate(-1489.759 -248.673)" fill="#757273" opacity="0.627"/>
        <path id="Path_429" data-name="Path 429" d="M1495.963,257a8.242,8.242,0,0,1,8.923-6.038,9.121,9.121,0,0,1,5.688,2.738c.212-.217,1.593.761,1.844.59s1.666-1.486,1.948-1.6a10.649,10.649,0,0,1,4.868-2.1,11.043,11.043,0,0,1,2.758-.089q.208.02.416.047a11.12,11.12,0,0,1,9.5,9.641,11.261,11.261,0,0,1-2.105,7.924c-2.982,4.183-11.549,12.213-15.881,16.181a6.282,6.282,0,0,1-2.615,1.45.437.437,0,0,1-.233,0,.513.513,0,0,1-.223-.119c-6.585-5.877-13.726-12.75-16.1-16.195a11.819,11.819,0,0,1-2.207-4.572C1491.92,261.282,1493.475,258.2,1495.963,257Z" transform="translate(-1489.853 -248.738)" fill="#716e6f" opacity="0.647"/>
        <path id="Path_430" data-name="Path 430" d="M1495.854,257.31a8.333,8.333,0,0,1,9-6.273,9.167,9.167,0,0,1,5.78,2.758c.2-.2,1.6.819,1.84.658s1.671-1.5,1.938-1.615a10.61,10.61,0,0,1,4.853-2.132,11.016,11.016,0,0,1,2.757-.1c.138.013.277.028.416.045a11.076,11.076,0,0,1,9.516,9.609,11.215,11.215,0,0,1-2.1,7.89c-2.97,4.166-11.493,12.16-15.83,16.133a6.661,6.661,0,0,1-2.594,1.483.427.427,0,0,1-.233.006.5.5,0,0,1-.223-.117c-6.662-5.947-13.738-12.771-16.1-16.187a11.8,11.8,0,0,1-2.165-4.442C1492.074,261.553,1493.5,258.546,1495.854,257.31Z" transform="translate(-1489.946 -248.802)" fill="#6c6a6a" opacity="0.667"/>
        <path id="Path_431" data-name="Path 431" d="M1495.742,257.624a8.425,8.425,0,0,1,9.074-6.509,9.216,9.216,0,0,1,5.871,2.777c.189-.193,1.613.878,1.836.726s1.677-1.522,1.928-1.626a10.575,10.575,0,0,1,4.838-2.167,10.945,10.945,0,0,1,2.756-.12c.138.012.277.026.416.043a11.03,11.03,0,0,1,9.532,9.576,11.163,11.163,0,0,1-2.088,7.856c-2.958,4.149-11.438,12.106-15.779,16.085a7.074,7.074,0,0,1-2.574,1.516.417.417,0,0,1-.232.011.482.482,0,0,1-.223-.115c-6.74-6.016-13.751-12.792-16.088-16.177a11.8,11.8,0,0,1-2.124-4.313C1492.226,261.824,1493.53,258.9,1495.742,257.624Z" transform="translate(-1490.035 -248.866)" fill="#686566" opacity="0.686"/>
        <path id="Path_432" data-name="Path 432" d="M1495.625,257.938a8.53,8.53,0,0,1,9.149-6.745,9.288,9.288,0,0,1,5.962,2.8c.177-.181,1.623.936,1.832.794s1.684-1.541,1.919-1.638a10.543,10.543,0,0,1,4.822-2.2,10.917,10.917,0,0,1,2.755-.135c.139.011.277.024.416.041a10.986,10.986,0,0,1,9.548,9.545,11.114,11.114,0,0,1-2.079,7.822c-2.946,4.132-11.382,12.053-15.728,16.037a7.552,7.552,0,0,1-2.552,1.549.408.408,0,0,1-.232.016.466.466,0,0,1-.223-.113c-6.818-6.085-13.763-12.812-16.081-16.169a11.819,11.819,0,0,1-2.082-4.184C1492.373,262.094,1493.552,259.246,1495.625,257.938Z" transform="translate(-1490.12 -248.929)" fill="#646162" opacity="0.706"/>
        <path id="Path_433" data-name="Path 433" d="M1495.505,258.25a8.63,8.63,0,0,1,9.225-6.98,9.337,9.337,0,0,1,6.054,2.817c.165-.169,1.633.994,1.829.861s1.689-1.559,1.909-1.65a10.515,10.515,0,0,1,4.806-2.236,10.873,10.873,0,0,1,2.754-.151c.138.01.278.023.416.039a10.942,10.942,0,0,1,9.564,9.512,11.063,11.063,0,0,1-2.07,7.788c-2.934,4.115-11.327,12-15.677,15.989a8.108,8.108,0,0,1-2.532,1.583.394.394,0,0,1-.231.021.455.455,0,0,1-.223-.111c-6.9-6.155-13.776-12.833-16.073-16.16a11.851,11.851,0,0,1-2.041-4.054C1492.516,262.364,1493.57,259.6,1495.505,258.25Z" transform="translate(-1490.202 -248.992)" fill="#5f5c5d" opacity="0.725"/>
        <path id="Path_434" data-name="Path 434" d="M1495.379,258.563a8.734,8.734,0,0,1,9.3-7.216,9.392,9.392,0,0,1,6.145,2.836c.153-.157,1.643,1.053,1.824.93s1.7-1.577,1.9-1.662a10.478,10.478,0,0,1,4.791-2.27,10.842,10.842,0,0,1,2.753-.167c.138.01.277.022.416.037a10.9,10.9,0,0,1,9.581,9.48,11.016,11.016,0,0,1-2.062,7.754c-2.921,4.1-11.272,11.946-15.626,15.941a8.742,8.742,0,0,1-2.512,1.616.382.382,0,0,1-.231.026.44.44,0,0,1-.223-.109c-6.973-6.224-13.788-12.853-16.065-16.152a11.927,11.927,0,0,1-2-3.925C1492.654,262.633,1493.583,259.944,1495.379,258.563Z" transform="translate(-1490.278 -249.054)" fill="#5b5859" opacity="0.745"/>
        <path id="Path_435" data-name="Path 435" d="M1495.249,258.875a8.841,8.841,0,0,1,9.376-7.452,9.446,9.446,0,0,1,6.236,2.856c.142-.145,1.653,1.111,1.82,1s1.7-1.595,1.89-1.673a10.453,10.453,0,0,1,4.775-2.306,10.8,10.8,0,0,1,2.753-.182q.207.013.416.034a10.856,10.856,0,0,1,9.6,9.448,10.966,10.966,0,0,1-2.053,7.72c-2.909,4.081-11.216,11.892-15.575,15.893a9.5,9.5,0,0,1-2.49,1.649.379.379,0,0,1-.231.03.428.428,0,0,1-.223-.108c-7.05-6.293-13.8-12.874-16.057-16.143a12.045,12.045,0,0,1-1.958-3.8C1492.786,262.9,1493.59,260.293,1495.249,258.875Z" transform="translate(-1490.349 -249.116)" fill="#575454" opacity="0.765"/>
        <path id="Path_436" data-name="Path 436" d="M1495.111,259.187a8.95,8.95,0,0,1,9.452-7.688,9.5,9.5,0,0,1,6.327,2.875c.13-.133,1.663,1.17,1.817,1.066s1.708-1.613,1.88-1.684a10.43,10.43,0,0,1,4.76-2.34,10.748,10.748,0,0,1,2.751-.2q.208.012.417.032a10.745,10.745,0,0,1,7.569,17.1c-2.9,4.063-11.161,11.839-15.525,15.845a10.371,10.371,0,0,1-2.47,1.682.372.372,0,0,1-.231.035.419.419,0,0,1-.222-.106c-7.129-6.362-13.813-12.894-16.05-16.134a12.184,12.184,0,0,1-1.917-3.666C1492.911,263.171,1493.59,260.641,1495.111,259.187Z" transform="translate(-1490.412 -249.178)" fill="#524f50" opacity="0.784"/>
        <path id="Path_437" data-name="Path 437" d="M1494.964,259.5a9.061,9.061,0,0,1,9.528-7.923,9.556,9.556,0,0,1,6.418,2.895c.118-.121,1.673,1.228,1.812,1.134s1.714-1.631,1.87-1.7a10.406,10.406,0,0,1,4.745-2.375,10.7,10.7,0,0,1,2.75-.213c.138.007.277.017.417.03a10.7,10.7,0,0,1,7.594,17.036c-2.885,4.046-11.106,11.786-15.473,15.8a11.45,11.45,0,0,1-2.449,1.715.367.367,0,0,1-.231.04.406.406,0,0,1-.222-.1c-7.206-6.432-13.826-12.915-16.042-16.126a12.4,12.4,0,0,1-1.876-3.537A6.919,6.919,0,0,1,1494.964,259.5Z" transform="translate(-1490.467 -249.239)" fill="#4e4b4c" opacity="0.804"/>
        <path id="Path_438" data-name="Path 438" d="M1494.806,259.809a9.176,9.176,0,0,1,9.6-8.159,9.614,9.614,0,0,1,6.51,2.914c.106-.109,1.683,1.287,1.809,1.2s1.719-1.649,1.86-1.708a10.382,10.382,0,0,1,4.729-2.409,10.641,10.641,0,0,1,2.75-.229c.138.006.277.016.417.028a10.656,10.656,0,0,1,7.619,16.969c-2.873,4.029-11.05,11.732-15.423,15.749a12.727,12.727,0,0,1-2.428,1.749.362.362,0,0,1-.23.045.4.4,0,0,1-.223-.1c-7.284-6.5-13.839-12.936-16.035-16.117a12.664,12.664,0,0,1-1.834-3.408A7.01,7.01,0,0,1,1494.806,259.809Z" transform="translate(-1490.511 -249.3)" fill="#4a4747" opacity="0.824"/>
        <path id="Path_439" data-name="Path 439" d="M1494.635,260.119a9.293,9.293,0,0,1,9.679-8.395,9.672,9.672,0,0,1,6.6,2.934c.095-.1,1.693,1.345,1.8,1.269s1.725-1.667,1.851-1.719a10.359,10.359,0,0,1,4.714-2.444,10.61,10.61,0,0,1,2.749-.245q.208.009.417.026a10.612,10.612,0,0,1,7.644,16.9c-2.86,4.012-10.995,11.679-15.372,15.7a14.362,14.362,0,0,1-2.407,1.782.357.357,0,0,1-.229.05.389.389,0,0,1-.223-.1c-7.361-6.57-13.851-12.956-16.027-16.108a13.02,13.02,0,0,1-1.793-3.278A7.143,7.143,0,0,1,1494.635,260.119Z" transform="translate(-1490.542 -249.359)" fill="#464243" opacity="0.843"/>
        <path id="Path_440" data-name="Path 440" d="M1494.448,260.43a9.412,9.412,0,0,1,9.754-8.631,9.734,9.734,0,0,1,6.693,2.953c.083-.084,1.7,1.4,1.8,1.337s1.732-1.685,1.841-1.73a10.334,10.334,0,0,1,4.7-2.479,10.562,10.562,0,0,1,2.748-.26q.208.007.417.024a10.567,10.567,0,0,1,7.669,16.837c-2.848,4-10.939,11.626-15.32,15.654a16.427,16.427,0,0,1-2.387,1.815.351.351,0,0,1-.229.055.381.381,0,0,1-.223-.1c-7.439-6.64-13.864-12.976-16.019-16.1a13.533,13.533,0,0,1-1.751-3.148A7.321,7.321,0,0,1,1494.448,260.43Z" transform="translate(-1490.556 -249.419)" fill="#413e3f" opacity="0.863"/>
        <path id="Path_441" data-name="Path 441" d="M1494.241,260.739a9.532,9.532,0,0,1,9.83-8.867,9.8,9.8,0,0,1,6.784,2.973c.071-.072,1.713,1.462,1.8,1.405s1.737-1.7,1.831-1.742a10.315,10.315,0,0,1,4.683-2.514,10.518,10.518,0,0,1,2.747-.276c.138,0,.278.012.417.021a10.524,10.524,0,0,1,7.694,16.771c-2.836,3.978-10.884,11.572-15.27,15.605a19.12,19.12,0,0,1-2.366,1.848.349.349,0,0,1-.229.06.371.371,0,0,1-.222-.1c-7.517-6.709-13.876-13-16.012-16.091a14.191,14.191,0,0,1-1.71-3.02A7.549,7.549,0,0,1,1494.241,260.739Z" transform="translate(-1490.551 -249.479)" fill="#3d393a" opacity="0.882"/>
        <path id="Path_442" data-name="Path 442" d="M1494.176,261.048c1.109-5,4.606-9.211,9.905-9.1a9.855,9.855,0,0,1,6.875,2.992c.059-.06,1.722,1.52,1.792,1.473s1.744-1.721,1.822-1.754a10.3,10.3,0,0,1,4.668-2.548,10.47,10.47,0,0,1,2.746-.292c.139,0,.278.01.417.019a10.481,10.481,0,0,1,7.719,16.7c-2.824,3.961-10.828,11.518-15.219,15.557a22.812,22.812,0,0,1-2.345,1.882.346.346,0,0,1-.229.065.363.363,0,0,1-.222-.095c-7.595-6.778-13.889-13.018-16-16.082a15.124,15.124,0,0,1-1.669-2.89A9.572,9.572,0,0,1,1494.176,261.048Z" transform="translate(-1490.687 -249.538)" fill="#393536" opacity="0.902"/>
        <path id="Path_443" data-name="Path 443" d="M1493.894,261.356c.906-5.149,4.607-9.425,9.981-9.338a9.919,9.919,0,0,1,6.967,3.012c.047-.048,1.732,1.579,1.788,1.541s1.749-1.739,1.812-1.765a10.285,10.285,0,0,1,4.652-2.583,10.45,10.45,0,0,1,2.746-.307c.138,0,.278.009.417.017A10.438,10.438,0,0,1,1530,268.572c-2.811,3.944-10.773,11.465-15.168,15.509a28.363,28.363,0,0,1-2.325,1.915.339.339,0,0,1-.229.069.353.353,0,0,1-.223-.092c-7.672-6.848-13.9-13.038-16-16.074a16.373,16.373,0,0,1-1.627-2.761A9.737,9.737,0,0,1,1493.894,261.356Z" transform="translate(-1490.607 -249.596)" fill="#343131" opacity="0.922"/>
        <path id="Path_444" data-name="Path 444" d="M1493.554,261.665c.69-5.292,4.609-9.639,10.057-9.574a9.982,9.982,0,0,1,7.058,3.031c.035-.036,1.743,1.637,1.784,1.609s1.756-1.757,1.8-1.777a10.263,10.263,0,0,1,4.636-2.618,10.42,10.42,0,0,1,2.745-.323c.138,0,.278.007.418.015a10.4,10.4,0,0,1,7.769,16.573c-2.8,3.927-10.718,11.412-15.117,15.461-.919.846-1.734,1.5-2.3,1.948a.339.339,0,0,1-.228.074.346.346,0,0,1-.222-.091c-7.75-6.917-13.914-13.059-15.989-16.065a18.3,18.3,0,0,1-1.586-2.631A9.9,9.9,0,0,1,1493.554,261.665Z" transform="translate(-1490.469 -249.654)" fill="#302c2d" opacity="0.941"/>
        <path id="Path_445" data-name="Path 445" d="M1493.156,261.973c.465-5.427,4.61-9.853,10.132-9.809a10.046,10.046,0,0,1,7.149,3.051c.024-.024,1.752,1.7,1.78,1.677s1.762-1.776,1.793-1.788a10.245,10.245,0,0,1,4.621-2.652,10.358,10.358,0,0,1,2.744-.338c.139,0,.278.006.418.012a10.352,10.352,0,0,1,7.794,16.506c-2.787,3.91-10.662,11.359-15.066,15.413-.919.847-1.72,1.519-2.283,1.982a.345.345,0,0,1-.451-.01c-7.827-6.986-13.926-13.079-15.981-16.056a21.308,21.308,0,0,1-1.544-2.5A10.028,10.028,0,0,1,1493.156,261.973Z" transform="translate(-1490.272 -249.712)" fill="#2c2829" opacity="0.961"/>
        <path id="Path_446" data-name="Path 446" d="M1492.711,262.281a10.29,10.29,0,0,1,10.208-10.046,10.114,10.114,0,0,1,7.24,3.071c.012-.012,1.762,1.754,1.776,1.745s1.768-1.794,1.783-1.8a10.213,10.213,0,0,1,7.348-3.041c.139,0,.278,0,.418.01a10.31,10.31,0,0,1,7.819,16.44c-2.776,3.893-10.607,11.305-15.015,15.365-.919.847-1.706,1.535-2.263,2.015a.339.339,0,0,1-.45,0c-7.905-7.055-13.939-13.1-15.974-16.048a26.324,26.324,0,0,1-1.5-2.373A10.078,10.078,0,0,1,1492.711,262.281Z" transform="translate(-1490.029 -249.769)" fill="#272324" opacity="0.98"/>
        <path id="Path_447" data-name="Path 447" d="M1511.557,286.142a.324.324,0,0,1-.222-.085c-7.983-7.125-13.951-13.12-15.966-16.039-1.714-2.484-3.134-4.757-3.134-7.431a10.294,10.294,0,0,1,10.283-10.281,10.179,10.179,0,0,1,7.332,3.09l1.772,1.813,1.774-1.812a10.188,10.188,0,0,1,7.332-3.091c.138,0,.278,0,.418.008a10.268,10.268,0,0,1,7.844,16.374c-3.338,4.683-14.014,14.476-17.206,17.365A.333.333,0,0,1,1511.557,286.142Z" transform="translate(-1489.755 -249.826)" fill="#231f20"/>
      </g>
      <path id="Path_448" data-name="Path 448" d="M1533.355,259.306a11.194,11.194,0,0,0-10.6-9.808,11.072,11.072,0,0,0-8.39,3.337,11.122,11.122,0,0,0-19.073,7.784c0,2.994,1.538,5.424,3.116,7.71,2.654,3.845,10.756,11.243,14.264,14.373a2.455,2.455,0,0,0,3.285-.013c3.65-3.3,12.364-11.353,15.316-15.493A11.182,11.182,0,0,0,1533.355,259.306Z" transform="translate(-1477.775 -228.194)" fill="#fff"/>
      <g id="Group_46" data-name="Group 46" transform="translate(36.37 21.297)">
        <path id="Path_449" data-name="Path 449" d="M1560.028,259.308a11.194,11.194,0,0,0-10.6-9.808c-.23-.009-.458-.009-.685,0,.126,0,.251,0,.378,0a11.118,11.118,0,0,1,8.517,17.7c-2.951,4.14-11.666,12.189-15.316,15.493a2.452,2.452,0,0,1-1.5.63,2.454,2.454,0,0,0,1.808-.63c3.65-3.3,12.364-11.353,15.316-15.493A11.183,11.183,0,0,0,1560.028,259.308Z" transform="translate(-1540.818 -249.493)" fill="#ff86cd"/>
      </g>
      <g id="Group_47" data-name="Group 47" transform="translate(17.513 21.727)">
        <path id="Path_450" data-name="Path 450" d="M1513.589,283.005c-3.508-3.131-11.61-10.528-14.264-14.373-1.578-2.286-3.116-4.715-3.116-7.71a11.129,11.129,0,0,1,7.145-10.392,11.129,11.129,0,0,0-8.066,10.7c0,2.994,1.538,5.424,3.116,7.71,2.654,3.845,10.756,11.243,14.264,14.373a2.453,2.453,0,0,0,2.856.3A2.447,2.447,0,0,1,1513.589,283.005Z" transform="translate(-1495.288 -250.53)" fill="#bf2980"/>
      </g>
    </g>
  </g>
</svg>
