<svg xmlns="http://www.w3.org/2000/svg" width="455.934" height="5.749" viewBox="0 0 455.934 5.749">
  <path id="Path_832" data-name="Path 832" d="M275.18,389.83c35.825-.941,71.974-.326,107.867-.615,36.94-.3,73.9-.121,110.843-.022q55.718.15,111.417.672c38.826.373,78.3-1.39,116.9.8,7.156.4,10.244-4.066,3.019-4.474-36.764-2.083-73.56-.432-110.473-.864-38.743-.453-77.5-.414-116.257-.34-38.482.075-76.975.112-115.444.571-36.292.431-72.4.486-108.347,2.824-2.016.131-1.536,1.5.479,1.451Z" transform="translate(-273.407 -384.938)" fill="#f8e7e4"/>
</svg>
