<svg id="Group_704" data-name="Group 704" xmlns="http://www.w3.org/2000/svg" xmlns:xlink="http://www.w3.org/1999/xlink" width="129.993" height="119.095" viewBox="0 0 129.993 119.095">
  <defs>
    <linearGradient id="linear-gradient" y1="1.014" x2="1.033" y2="-0.049" gradientUnits="objectBoundingBox">
      <stop offset="0.229" stop-color="#9c57f2"/>
      <stop offset="0.509" stop-color="#b459f5"/>
      <stop offset="1" stop-color="#e75efe"/>
    </linearGradient>
  </defs>
  <path id="Path_2245" data-name="Path 2245" d="M-552.733,812.162l58.828,4.114c10.154.71,21.1-7.6,24.455-18.562l19.444-63.529a18.477,18.477,0,0,0-.506-13.3,13.829,13.829,0,0,0-1.723-2.775q-.338-.421-.708-.813t-.772-.753h0l12.993,11.671c4.281,3.846,5.919,10.419,3.708,17.643l-19.444,63.529c-3.355,10.961-14.3,19.273-24.455,18.563l-58.829-4.114a14.114,14.114,0,0,1-8.6-3.49l-12.993-11.671A14.115,14.115,0,0,0-552.733,812.162Z" transform="translate(566.022 -708.895)" fill="#692cb6"/>
  <path id="Path_2246" data-name="Path 2246" d="M-571.681,780.206l19.444-63.529c3.355-10.961,14.3-19.272,24.455-18.562l58.828,4.114c10.154.71,15.661,10.173,12.306,21.133l-19.444,63.529c-3.354,10.961-14.3,19.273-24.455,18.563l-58.828-4.114C-569.525,800.63-575.036,791.167-571.681,780.206Z" transform="translate(572.664 -698.072)" fill="url(#linear-gradient)"/>
  <path id="Path_2247" data-name="Path 2247" d="M-454.9,716.63c3.622,3.923,4.894,10.068,2.84,16.778l-19.444,63.529c-3.354,10.96-14.3,19.273-24.455,18.563l-58.828-4.114a14.1,14.1,0,0,1-8.636-3.527,13.918,13.918,0,0,0,9.464,4.355l58.828,4.114c10.154.71,21.1-7.6,24.455-18.563l19.444-63.529C-449.03,727.035-450.651,720.481-454.9,716.63Z" transform="translate(567.251 -708.947)" fill="#e75efe"/>
  <g id="Group_702" data-name="Group 702" transform="translate(22.766 38.662)">
    <path id="Path_2248" data-name="Path 2248" d="M-515.561,809.083-517.675,806l3.362-1.2,16.948-8.968,2.114,3.086-1.3,4.575-12.577,3.795,7.8,2.511,2.114,3.086-1.324,4.66Z" transform="translate(517.675 -794.02)" fill="#692cb6"/>
    <path id="Path_2249" data-name="Path 2249" d="M-452.438,794.18l2.851-2.723,2.114,3.086-22.744,27.685-4.984-.369-2.114-3.086Z" transform="translate(494.025 -791.457)" fill="#692cb6"/>
    <path id="Path_2250" data-name="Path 2250" d="M-394.156,816.412l-1.141,4.3-19.079,5.955-2.114-3.086L-413.1,822l12.592-3.945-10.027-5.462-2.114-3.086,3.363-1.5,13.02,5.317Z" transform="translate(458.381 -801.156)" fill="#692cb6"/>
  </g>
  <g id="Group_703" data-name="Group 703" transform="translate(22.766 38.299)">
    <path id="Path_2251" data-name="Path 2251" d="M-517.675,806l1.249-4.285,19.062-5.881-1.3,4.575-12.577,3.795,9.909,5.6-1.324,4.661Z" transform="translate(517.675 -793.657)" fill="#fff"/>
    <path id="Path_2252" data-name="Path 2252" d="M-454.552,790.579l4.965.363-22.744,27.685-4.984-.37Z" transform="translate(494.025 -790.579)" fill="#fff"/>
    <path id="Path_2253" data-name="Path 2253" d="M-396.269,808.958l-1.141,4.3-19.079,5.955,1.273-4.668,12.592-3.945-10.028-5.463,1.249-4.582Z" transform="translate(458.381 -796.425)" fill="#fff"/>
  </g>
</svg>
