<svg id="Group_701" data-name="Group 701" xmlns="http://www.w3.org/2000/svg" xmlns:xlink="http://www.w3.org/1999/xlink" width="137.622" height="141.429" viewBox="0 0 137.622 141.429">
  <defs>
    <linearGradient id="linear-gradient" x1="0.125" y1="0.588" x2="1" y2="0.382" gradientUnits="objectBoundingBox">
      <stop offset="0" stop-color="#57cc99"/>
      <stop offset="0.622" stop-color="#6fdf99"/>
      <stop offset="1" stop-color="#80ed99"/>
    </linearGradient>
  </defs>
  <g id="Group_700" data-name="Group 700" transform="translate(0 0)">
    <path id="Path_2228" data-name="Path 2228" d="M3619.409,1326.345l-12.822,11.956a2.765,2.765,0,0,0-.69,1.038l-3.219,8.313a2.276,2.276,0,0,1-.569.856l12.821-11.956a2.279,2.279,0,0,0,.569-.856l3.218-8.314a2.885,2.885,0,0,1,.3-.572,2.637,2.637,0,0,1,.394-.465h0Z" transform="translate(-3538.79 -1316.84)" fill="#419973"/>
    <path id="Path_2229" data-name="Path 2229" d="M3718.571,1457.036l-11.91,1.2-12.822,11.957,11.91-1.2a3.053,3.053,0,0,0,1.38-.465,2.7,2.7,0,0,0,.356-.279l12.822-11.956A2.914,2.914,0,0,1,3718.571,1457.036Z" transform="translate(-3585.986 -1383.701)" fill="#419973"/>
    <path id="Path_2230" data-name="Path 2230" d="M3538.259,1330.429a2.474,2.474,0,0,0,.152-.258c.021-.041.042-.082.061-.125a2.871,2.871,0,0,0,.116-.315c.009-.032.021-.062.03-.094a3.066,3.066,0,0,0,.081-.44c0-.037,0-.076.008-.113.009-.118.012-.24.01-.363,0-.053,0-.107-.008-.162q-.012-.178-.042-.361c-.008-.051-.014-.1-.024-.152,0-.023-.006-.046-.011-.069-.021-.1-.054-.2-.083-.305-.017-.061-.029-.12-.049-.182a5.359,5.359,0,0,0-.217-.566l-4.807-10.736a6.959,6.959,0,0,1-.267-.7c-.024-.077-.04-.151-.061-.227-.043-.153-.086-.306-.116-.455-.011-.056-.018-.111-.027-.167-.025-.153-.045-.3-.056-.451,0-.065-.009-.129-.011-.193,0-.146,0-.289.007-.429,0-.049,0-.1.008-.147a3.648,3.648,0,0,1,.091-.529c.008-.033.02-.063.029-.1a3.15,3.15,0,0,1,.137-.39c.021-.05.045-.1.069-.145a2.725,2.725,0,0,1,.176-.307c.027-.042.053-.084.082-.123a2.693,2.693,0,0,1,.318-.364l-12.822,11.956a2.569,2.569,0,0,0-.318.364c-.03.039-.055.082-.082.123a2.815,2.815,0,0,0-.177.307c-.024.048-.047.1-.068.145a3.267,3.267,0,0,0-.137.39c-.009.033-.022.063-.03.1a3.672,3.672,0,0,0-.09.528c0,.048-.006.1-.009.148-.009.139-.011.282-.007.428,0,.063.006.128.011.193q.016.221.056.451c.009.056.016.11.027.167,0,.022.006.042.01.064.028.128.07.261.106.391.022.076.036.15.062.227a6.843,6.843,0,0,0,.267.7l4.807,10.736a5.5,5.5,0,0,1,.216.566c.02.061.032.121.05.182.035.125.069.251.094.374.01.051.016.1.024.152.019.122.033.243.042.361q.006.081.008.162a3.428,3.428,0,0,1-.01.363c0,.037,0,.076-.007.113a3.082,3.082,0,0,1-.082.441c-.008.032-.021.062-.031.094a2.742,2.742,0,0,1-.115.315c-.019.042-.04.083-.06.125a2.407,2.407,0,0,1-.152.258c-.024.035-.046.071-.072.105a2.377,2.377,0,0,1-.275.311l12.822-11.956a2.4,2.4,0,0,0,.275-.312C3538.213,1330.5,3538.235,1330.464,3538.259,1330.429Z" transform="translate(-3496.6 -1309.186)" fill="#419973"/>
    <path id="Path_2231" data-name="Path 2231" d="M3613.264,1433.307c.084-.108.162-.222.243-.333.125-.17.25-.341.366-.518.082-.122.156-.25.234-.375.107-.175.214-.349.315-.53.075-.135.145-.272.216-.409.093-.182.185-.364.271-.551.066-.144.13-.289.191-.436q.12-.285.23-.577c.057-.151.112-.3.165-.458.068-.2.131-.4.191-.607.047-.158.094-.316.136-.477.056-.211.105-.426.154-.643.036-.162.073-.322.1-.487.044-.227.08-.458.115-.69.024-.162.052-.322.072-.486.031-.25.053-.506.075-.763.013-.152.031-.3.04-.457.019-.308.027-.622.032-.938,0-.109.008-.215.009-.324q0-.642-.036-1.3c-.005-.106-.019-.215-.026-.321-.024-.338-.05-.677-.088-1.022-.019-.167-.046-.338-.069-.507-.038-.29-.077-.58-.126-.875-.031-.191-.071-.384-.107-.577-.039-.208-.072-.413-.116-.623-.019-.091-.043-.185-.063-.276s-.045-.2-.069-.3c-.1-.446-.215-.895-.342-1.351s-.268-.9-.417-1.349c-.042-.129-.087-.257-.132-.385q-.179-.519-.378-1.035c-.044-.114-.085-.229-.132-.343q-.263-.663-.557-1.321c-.037-.08-.075-.16-.112-.24q-.249-.547-.521-1.09c-.065-.129-.13-.258-.2-.387q-.274-.535-.569-1.065c-.045-.082-.088-.164-.134-.246q-.361-.639-.75-1.269c-.066-.107-.135-.214-.2-.321q-.308-.488-.629-.969c-.081-.12-.16-.239-.242-.359-.274-.4-.555-.8-.844-1.194l-.02-.027,0,0c-.328-.444-.668-.88-1.014-1.312-.084-.106-.168-.21-.254-.315-.349-.428-.7-.851-1.067-1.266l-.058-.063c-.351-.4-.711-.786-1.075-1.171-.093-.1-.185-.195-.279-.292-.383-.4-.771-.786-1.167-1.167-.039-.038-.08-.075-.12-.113-.366-.349-.74-.69-1.117-1.026-.1-.087-.2-.175-.3-.261q-.616-.538-1.249-1.052c-.058-.047-.118-.092-.177-.139q-.57-.455-1.153-.887c-.1-.076-.2-.152-.305-.226q-.651-.475-1.315-.922l-.062-.043c-.106-.07-.212-.135-.317-.2-.222-.145-.445-.29-.669-.43-.145-.09-.29-.177-.436-.265-.213-.129-.426-.257-.641-.381-.152-.088-.3-.173-.458-.258q-.315-.177-.633-.347c-.156-.083-.312-.164-.468-.245q-.318-.163-.636-.319c-.157-.076-.314-.152-.471-.226-.216-.1-.433-.2-.65-.295-.154-.068-.308-.137-.463-.2-.227-.1-.453-.186-.681-.276-.146-.058-.292-.118-.438-.173-.25-.095-.5-.182-.752-.27-.124-.043-.248-.089-.372-.131q-.562-.187-1.126-.35t-1.106-.292c-.121-.03-.24-.053-.359-.081-.244-.056-.487-.112-.728-.16-.142-.028-.282-.051-.422-.077-.215-.039-.431-.079-.644-.112-.149-.023-.3-.042-.443-.062s-.293-.044-.437-.061c-.05-.006-.1-.008-.149-.014-.214-.024-.426-.041-.637-.058-.155-.013-.311-.027-.464-.036-.219-.013-.435-.019-.65-.026-.141,0-.284-.011-.424-.013-.238,0-.471,0-.7.011-.114,0-.23,0-.344.007-.344.016-.684.039-1.019.072a14.442,14.442,0,0,0-8.565,3.693l-12.822,11.956a14.439,14.439,0,0,1,8.565-3.693c.334-.034.675-.057,1.019-.073.113,0,.229,0,.344-.007.233-.006.466-.013.7-.011.14,0,.283.009.424.013.216.006.432.012.651.025.154.009.309.024.465.036.211.017.422.034.636.058.194.021.39.048.587.074.147.02.294.038.443.062.212.033.428.072.644.112.141.026.28.048.422.077.241.048.484.1.729.16.119.027.238.051.358.081q.549.133,1.106.292c.376.107.751.225,1.126.349.125.041.248.088.372.131.251.087.5.175.752.269.146.055.293.116.439.174.227.09.453.18.679.276.155.066.309.135.464.2.217.1.433.193.649.294.158.074.315.15.472.227q.319.155.635.318.236.121.47.246.317.169.632.345c.153.086.307.172.459.26.214.123.426.251.639.38.146.088.292.176.437.267.224.139.446.284.667.429.127.082.254.163.379.247q.665.445,1.316.922c.1.074.2.15.3.226q.583.433,1.155.889c.058.046.117.091.175.137.422.341.839.694,1.25,1.053l.294.26q.567.5,1.12,1.028l.118.111c.4.381.785.771,1.168,1.168.093.1.185.193.277.29q.549.578,1.078,1.173c.018.021.037.041.056.062.365.415.719.839,1.068,1.267q.127.157.254.314c.345.432.686.869,1.013,1.313l.019.025c.291.4.573.8.85,1.2.081.118.16.238.24.356q.322.482.63.971c.067.107.135.213.2.319q.387.63.749,1.27c.046.082.089.164.134.246q.294.529.569,1.065c.066.128.131.258.2.387q.271.543.522,1.091c.037.08.076.159.111.239q.3.657.557,1.321c.045.114.087.227.131.341q.2.517.379,1.036c.044.129.089.257.132.386.149.449.29.9.416,1.348s.239.905.342,1.351c.023.1.047.2.07.3.067.3.123.6.179.9.036.192.075.386.107.577.049.295.087.584.126.875.022.169.05.34.068.507.039.345.065.684.088,1.022.008.106.021.215.026.321q.037.662.036,1.3c0,.108-.007.213-.009.32-.005.317-.013.633-.032.942-.009.155-.027.3-.04.457-.022.256-.044.512-.075.762-.021.164-.048.325-.073.486-.035.232-.072.463-.115.689-.032.165-.069.326-.1.488-.048.216-.1.431-.153.642-.043.161-.089.319-.135.477-.061.2-.124.407-.191.607-.053.155-.108.308-.165.46q-.11.292-.23.576c-.062.147-.125.294-.192.438-.086.187-.177.369-.271.55-.071.137-.141.275-.216.41-.1.181-.207.355-.314.53-.078.126-.154.253-.235.376-.117.177-.241.347-.366.517-.081.111-.16.225-.244.333-.143.183-.294.358-.446.532-.075.086-.146.177-.222.261-.233.255-.474.5-.726.735l12.822-11.956c.252-.235.493-.481.726-.736.077-.084.148-.174.222-.26C3612.969,1433.664,3613.121,1433.49,3613.264,1433.307Z" transform="translate(-3516.974 -1349.009)" fill="#419973"/>
    <path id="Path_2232" data-name="Path 2232" d="M3703.593,1533a3.858,3.858,0,0,1-.434.019c-.051,0-.1-.007-.155-.009-.1,0-.2-.008-.3-.02-.019,0-.04-.007-.058-.009a4.958,4.958,0,0,1-.535-.1l-.165-.042c-.174-.047-.349-.1-.526-.169l-.088-.031c-.2-.079-.406-.174-.611-.278-.053-.027-.106-.057-.159-.085q-.247-.134-.495-.293c-.074-.048-.148-.091-.222-.142l-10-6.918-.11-.075c-.029-.018-.056-.031-.084-.049-.13-.083-.26-.161-.391-.232-.043-.023-.086-.047-.129-.069a5.392,5.392,0,0,0-.492-.223c-.025-.01-.049-.016-.073-.026q-.213-.078-.423-.135l-.137-.034c-.141-.033-.28-.06-.418-.078-.017,0-.035-.007-.051-.009h-.016c-.085-.01-.168-.013-.252-.017-.041,0-.083-.007-.125-.007a3.448,3.448,0,0,0-.365.016,2.651,2.651,0,0,0-1.432.57q-.971.795-2.019,1.5a2.354,2.354,0,0,0-.311.245l-12.822,11.956a2.39,2.39,0,0,1,.311-.245q1.05-.7,2.02-1.5a2.654,2.654,0,0,1,1.432-.57,3.363,3.363,0,0,1,.364-.016c.042,0,.085.006.127.007.083,0,.166.007.25.016l.067.011a4.168,4.168,0,0,1,.417.077c.046.01.091.022.137.035.14.038.281.082.422.135.025.009.049.016.074.026a5.293,5.293,0,0,1,.492.223c.043.022.086.046.13.07q.2.106.391.232c.064.042.129.08.194.125l10,6.919c.04.028.08.055.121.082s.067.038.1.06c.166.106.33.2.495.293.054.029.106.059.159.086.2.1.408.2.611.278.029.011.058.019.087.031.177.066.352.121.526.168.055.015.11.029.166.042a5,5,0,0,0,.534.1l.045.008h.012c.1.012.2.015.3.02.049,0,.1.008.148.009a3.852,3.852,0,0,0,.434-.018,2.931,2.931,0,0,0,1.738-.745l12.822-11.956A2.929,2.929,0,0,1,3703.593,1533Z" transform="translate(-3573.824 -1418.521)" fill="#419973"/>
    <path id="Path_2233" data-name="Path 2233" d="M3501.152,1375.8c-.115-1.05-.234-2.27-.319-3.4a4.552,4.552,0,0,0-.083-.575c0-.007,0-.014-.006-.021-.015-.073-.042-.147-.061-.221-.034-.128-.066-.256-.111-.384-.029-.083-.066-.165-.1-.247-.047-.118-.093-.237-.149-.354-.042-.086-.09-.17-.135-.255-.06-.111-.118-.223-.185-.332-.053-.086-.112-.169-.169-.253s-.1-.162-.16-.241c-.02-.027-.042-.051-.063-.078-.044-.058-.092-.115-.138-.172-.092-.114-.187-.226-.288-.334-.053-.058-.107-.115-.162-.172-.106-.108-.217-.213-.331-.314-.052-.047-.1-.1-.156-.141-.169-.143-.343-.28-.525-.406l-10.085-6.964c-.182-.126-.357-.26-.527-.4-.054-.044-.106-.091-.159-.136-.115-.1-.227-.2-.336-.3-.057-.054-.112-.11-.168-.165-.1-.1-.2-.207-.3-.313-.05-.056-.1-.111-.149-.168-.105-.123-.205-.25-.3-.377-.03-.04-.063-.079-.093-.119-.143-.2-.274-.395-.4-.6-.031-.051-.06-.1-.09-.154-.1-.172-.192-.345-.276-.52-.019-.04-.04-.079-.059-.119-.095-.207-.178-.415-.251-.623-.017-.049-.031-.1-.047-.146-.056-.174-.1-.348-.143-.52-.011-.047-.024-.095-.033-.142a5.057,5.057,0,0,1-.085-.562c0-.025,0-.05,0-.075a4.611,4.611,0,0,1-.011-.474c0-.056.006-.111.01-.167q.014-.194.046-.38c.008-.052.016-.1.027-.155a3.293,3.293,0,0,1,.141-.494l5.163-13.474a2.766,2.766,0,0,1,.694-1.047l-12.822,11.956a2.775,2.775,0,0,0-.695,1.047l-5.162,13.473a3.358,3.358,0,0,0-.141.493c-.011.052-.018.1-.027.156-.021.124-.036.251-.045.38,0,.056-.008.111-.009.167a4.444,4.444,0,0,0,.011.472c0,.026,0,.05,0,.076a5.315,5.315,0,0,0,.085.562c0,.016,0,.032.008.048s.019.063.026.095q.059.259.144.519c.015.049.03.1.047.147.073.208.155.416.25.623.019.04.04.079.059.119q.126.263.276.52c.03.052.058.1.09.154.123.2.254.4.4.6l.014.021c.024.034.054.066.08.1.1.127.2.253.3.376.048.057.1.113.15.168q.144.159.3.313c.055.055.111.111.168.165.109.1.221.2.335.3.053.046.1.093.159.137.17.139.345.273.527.4l10.085,6.964c.182.126.356.264.525.406.054.045.1.093.156.14.113.1.225.206.331.315.055.056.109.113.162.171.1.109.2.221.289.335.046.057.093.113.137.171.08.1.152.213.224.321.056.084.115.166.168.251.067.11.126.222.186.333.045.084.094.168.134.253.057.117.1.236.149.354.033.082.071.163.1.246.045.128.077.256.11.385.02.074.046.148.061.221a4.425,4.425,0,0,1,.09.6c.084,1.129.2,2.349.318,3.4a2.72,2.72,0,0,1-.736,2.354l12.822-11.956A2.72,2.72,0,0,0,3501.152,1375.8Z" transform="translate(-3471.679 -1323.51)" fill="#419973"/>
    <path id="Path_2234" data-name="Path 2234" d="M3648.483,1550.352,3633.3,1551.9a4,4,0,0,1-.454.019c-.053,0-.106-.008-.159-.011-.1,0-.2-.009-.3-.021a5.188,5.188,0,0,1-.611-.116c-.054-.014-.108-.029-.162-.044-.173-.048-.347-.1-.519-.17-.036-.014-.072-.025-.108-.039-.2-.082-.4-.175-.6-.279-.049-.026-.1-.053-.145-.08-.164-.089-.326-.186-.485-.289-.046-.03-.092-.058-.137-.089-.178-.12-.353-.248-.525-.384l-.066-.057c-.148-.121-.293-.248-.434-.38-.05-.047-.1-.1-.148-.144q-.175-.171-.34-.353c-.045-.049-.091-.1-.135-.148-.147-.169-.291-.344-.425-.525l0,0c-.149-.2-.285-.412-.415-.627-.032-.054-.065-.109-.1-.163a7.555,7.555,0,0,1-.35-.674l-4.871-10.844a6.571,6.571,0,0,0-.325-.626c-.035-.06-.079-.117-.116-.177-.088-.14-.175-.28-.273-.413l0,0-.024-.03q-.189-.253-.4-.488c-.049-.055-.1-.106-.153-.16-.1-.108-.208-.214-.316-.316-.062-.057-.126-.112-.19-.166-.1-.09-.21-.178-.319-.261-.069-.052-.138-.1-.208-.152-.047-.034-.093-.072-.141-.1-.091-.061-.185-.116-.278-.172l-.067-.041a5.878,5.878,0,0,0-.527-.268l-.124-.053a4.967,4.967,0,0,0-.551-.2c-1.059-.306-2.3-.675-3.449-1.045-.142-.045-.282-.083-.419-.114-.046-.01-.091-.014-.137-.023-.09-.017-.181-.035-.269-.046h-.008c-.086-.01-.169-.012-.252-.017-.042,0-.083-.007-.124-.007a3.119,3.119,0,0,0-.366.015,2.42,2.42,0,0,0-1.436.617l-12.822,11.956a2.418,2.418,0,0,1,1.435-.617,3.192,3.192,0,0,1,.366-.015c.042,0,.087.006.13.008.084,0,.167.007.254.017s.184.029.275.047c.044.008.086.013.131.022q.206.046.419.114c1.154.37,2.39.739,3.449,1.045a5.173,5.173,0,0,1,.551.2c.042.017.083.034.124.053a5.709,5.709,0,0,1,.527.267c.023.013.046.029.068.042.142.084.281.178.419.275.07.05.14.1.209.153.108.083.214.17.318.26.064.055.129.11.19.168.109.1.213.208.316.316.051.054.1.1.152.159q.209.234.4.484c.009.012.019.022.027.034.091.124.171.255.254.383.045.07.1.137.139.209a6.382,6.382,0,0,1,.324.625l4.872,10.844a7.534,7.534,0,0,0,.349.674c.031.056.063.11.1.164.129.214.266.424.415.626l0,0h0c.135.181.278.355.425.524.044.051.09.1.135.15.11.121.222.238.338.351.049.049.1.1.15.145q.211.2.431.377c.023.02.046.04.069.059.171.136.346.263.524.383l.046.034c.03.02.061.035.091.054q.24.155.485.289c.049.027.1.055.146.08.2.1.4.2.6.279.036.015.072.026.108.039.173.066.345.122.519.17l.161.044a5.045,5.045,0,0,0,.611.115l.01,0c.1.012.2.015.3.019.05,0,.1.009.151.01a4.087,4.087,0,0,0,.454-.019l15.184-1.549a3.213,3.213,0,0,0,.969-.246,2.684,2.684,0,0,0,.763-.5l12.821-11.956A2.92,2.92,0,0,1,3648.483,1550.352Z" transform="translate(-3536.936 -1422.448)" fill="#419973"/>
    <path id="Path_2235" data-name="Path 2235" d="M3619.463,1398.9l-10.076-6.972a6.451,6.451,0,0,1-2.815-4.5c-.2-2.716-.6-5.928-.634-6.12l11.91-1.2c2.413-.241,3.359-2.69,2.112-5.466l-7.841-17.489c-1.245-2.773-4.207-4.827-6.622-4.585l-9.322.94a5.824,5.824,0,0,1-4.673-2.467q-1.167-1.452-2.4-2.855c-1.367-1.558-1.983-3.473-1.456-4.843l3.192-8.254c.827-2.132-.6-5.318-3.182-7.108l-16.286-11.286a5.77,5.77,0,0,0-3.748-1.162,2.772,2.772,0,0,0-2.43,1.784l-3.218,8.314a2.285,2.285,0,0,1-2,1.471,3.922,3.922,0,0,1-1.583-.2c-1.156-.369-2.391-.742-3.45-1.048a6.741,6.741,0,0,1-4.014-3.632l-4.855-10.842c-1.243-2.776-4.206-4.831-6.618-4.59l-15.2,1.52c-2.413.241-3.36,2.687-2.117,5.464l4.806,10.736c.8,1.775.477,3.4-.684,4.167-.735.489-1.443,1.014-2.12,1.567a2.647,2.647,0,0,1-1.439.577,4.668,4.668,0,0,1-3.051-.934l-10.012-6.91a5.752,5.752,0,0,0-3.732-1.153,2.771,2.771,0,0,0-2.434,1.793l-5.163,13.474c-.816,2.139.615,5.319,3.2,7.106l10.085,6.964a6.463,6.463,0,0,1,2.821,4.5c.084,1.129.2,2.35.318,3.4a2.446,2.446,0,0,1-2.171,2.973l-9.407.971c-2.41.245-3.352,2.7-2.1,5.473l7.869,17.486c1.247,2.771,4.2,4.819,6.623,4.578l9.315-.962a5.83,5.83,0,0,1,4.674,2.463q1.167,1.451,2.4,2.855c1.367,1.55,1.988,3.468,1.46,4.838l-3.177,8.267c-.821,2.135.609,5.32,3.2,7.107l16.292,11.266a5.768,5.768,0,0,0,3.741,1.157,2.771,2.771,0,0,0,2.432-1.789l3.2-8.331a2.292,2.292,0,0,1,2.007-1.475,3.908,3.908,0,0,1,1.574.193c1.154.369,2.39.738,3.449,1.045a6.742,6.742,0,0,1,4.016,3.628l4.872,10.844c1.243,2.768,4.2,4.82,6.623,4.578l15.184-1.549c2.41-.245,3.353-2.694,2.107-5.47l-4.823-10.734c-.8-1.775-.485-3.4.677-4.174q1.05-.7,2.02-1.5a2.652,2.652,0,0,1,1.432-.57,4.678,4.678,0,0,1,3.065.941l10,6.919a5.769,5.769,0,0,0,3.746,1.16,2.766,2.766,0,0,0,2.428-1.785l5.19-13.457C3623.476,1403.867,3622.048,1400.686,3619.463,1398.9Zm-47.868-2.612a22.794,22.794,0,0,1-8.53-.9c-11.392-3.261-22.482-14.521-25.756-26.231-3.494-12.485,2.109-21.441,12.078-22.44a22.807,22.807,0,0,1,8.53.9c11.392,3.261,22.482,14.521,25.755,26.231C3587.166,1386.329,3581.565,1395.286,3571.594,1396.283Z" transform="translate(-3485.264 -1306.765)" fill="url(#linear-gradient)"/>
    <g id="Group_699" data-name="Group 699" transform="translate(22.966 0.409)" opacity="0.3">
      <path id="Path_2236" data-name="Path 2236" d="M3591.418,1311.323l4.854,10.841a6.841,6.841,0,0,0,3.61,3.486,6.992,6.992,0,0,1-2.639-3l-4.855-10.842a8.348,8.348,0,0,0-4.289-4.2A8.475,8.475,0,0,1,3591.418,1311.323Z" transform="translate(-3554.547 -1307.608)" fill="#fff"/>
      <path id="Path_2237" data-name="Path 2237" d="M3519.426,1338.851l10.011,6.91a5.8,5.8,0,0,0,1.241.658c-.091-.056-.181-.111-.271-.173l-10.011-6.91a7.294,7.294,0,0,0-1.41-.766C3519.133,1338.658,3519.28,1338.75,3519.426,1338.851Z" transform="translate(-3518.986 -1323.539)" fill="#fff"/>
      <path id="Path_2238" data-name="Path 2238" d="M3646.573,1325.9l16.286,11.286c2.583,1.791,4.009,4.977,3.183,7.108l-3.192,8.254c-.528,1.37.088,3.285,1.455,4.843q1.234,1.4,2.4,2.855a7.032,7.032,0,0,0,2.906,2.194,7.482,7.482,0,0,1-1.935-1.709c-.778-.968-1.577-1.922-2.4-2.855-1.367-1.558-1.983-3.473-1.455-4.843l3.192-8.254c.826-2.132-.6-5.317-3.183-7.108l-16.286-11.286a7.293,7.293,0,0,0-1.419-.772C3646.275,1325.7,3646.425,1325.794,3646.573,1325.9Z" transform="translate(-3584.402 -1316.871)" fill="#fff"/>
      <path id="Path_2239" data-name="Path 2239" d="M3576.75,1410.881c-3.494-12.485,2.109-21.441,12.078-22.439a22.816,22.816,0,0,1,8.53.9,30.288,30.288,0,0,1,4.765,1.834,30.973,30.973,0,0,0-5.736-2.32,22.817,22.817,0,0,0-8.53-.9c-9.97,1-15.572,9.954-12.079,22.44,2.813,10.063,11.4,19.79,20.99,24.4C3587.576,1430.011,3579.468,1420.6,3576.75,1410.881Z" transform="translate(-3547.671 -1348.901)" fill="#fff"/>
      <path id="Path_2240" data-name="Path 2240" d="M3679.133,1529.705c-.8-1.775-.485-3.4.678-4.174q1.05-.7,2.02-1.5a2.649,2.649,0,0,1,1.432-.57,4.03,4.03,0,0,1,1.816.276,4.533,4.533,0,0,0-2.787-.762,2.653,2.653,0,0,0-1.432.57q-.971.8-2.019,1.5c-1.163.773-1.476,2.4-.678,4.174l4.823,10.734c1.246,2.776.3,5.225-2.107,5.47l-15.184,1.549a4.962,4.962,0,0,1-2.339-.39,5.537,5.537,0,0,0,3.309.875l15.184-1.549c2.411-.245,3.353-2.694,2.107-5.47Z" transform="translate(-3593.268 -1418.415)" fill="#fff"/>
      <path id="Path_2241" data-name="Path 2241" d="M3732.745,1447.843l-10.076-6.972a6.452,6.452,0,0,1-2.814-4.5c-.2-2.716-.6-5.928-.634-6.119l11.911-1.2c2.412-.241,3.358-2.691,2.112-5.466l-7.841-17.489a8.354,8.354,0,0,0-4.289-4.2,8.478,8.478,0,0,1,3.317,3.71l7.841,17.488c1.246,2.776.3,5.225-2.112,5.467l-11.911,1.2c.036.191.433,3.4.635,6.119a6.45,6.45,0,0,0,2.814,4.5l10.076,6.972c2.586,1.791,4.014,4.972,3.189,7.108l-5.189,13.457a2.766,2.766,0,0,1-2.428,1.785,4.962,4.962,0,0,1-2.329-.389,5.512,5.512,0,0,0,3.3.875,2.766,2.766,0,0,0,2.428-1.785l5.19-13.457C3736.759,1452.816,3735.331,1449.634,3732.745,1447.843Z" transform="translate(-3621.512 -1356.123)" fill="#fff"/>
      <path id="Path_2242" data-name="Path 2242" d="M3538.9,1476.32l-9.315.962a4.963,4.963,0,0,1-2.338-.39,5.532,5.532,0,0,0,3.309.875l9.315-.962a3.937,3.937,0,0,1,1.77.273A4.548,4.548,0,0,0,3538.9,1476.32Z" transform="translate(-3523.235 -1394.407)" fill="#fff"/>
      <path id="Path_2243" data-name="Path 2243" d="M3620.334,1531.851c-1.059-.306-2.295-.675-3.449-1.045a3.914,3.914,0,0,0-1.575-.193,2.292,2.292,0,0,0-2.007,1.475l-3.2,8.331a2.77,2.77,0,0,1-2.432,1.79,4.963,4.963,0,0,1-2.328-.389,5.508,5.508,0,0,0,3.3.875,2.771,2.771,0,0,0,2.433-1.79l3.2-8.331a2.29,2.29,0,0,1,2.007-1.475,3.907,3.907,0,0,1,1.574.193c1.154.369,2.39.738,3.449,1.045.137.039.271.094.407.147A5.514,5.514,0,0,0,3620.334,1531.851Z" transform="translate(-3563.419 -1422.342)" fill="#fff"/>
    </g>
    <path id="Path_2244" data-name="Path 2244" d="M3542.438,1487.912a3.923,3.923,0,0,1-.435.018c-.048,0-.1-.007-.149-.009-.1,0-.2-.008-.3-.019l-.06-.01a5.143,5.143,0,0,1-.533-.1c-.055-.013-.11-.027-.165-.042-.175-.048-.351-.1-.529-.17-.028-.011-.056-.019-.084-.029-.2-.079-.407-.174-.611-.277-.052-.027-.106-.057-.159-.086q-.249-.135-.5-.295c-.072-.046-.145-.089-.217-.138L3522.4,1475.49c-.182-.126-.357-.26-.527-.4-.054-.044-.106-.091-.159-.136-.114-.1-.226-.2-.334-.3-.057-.054-.113-.11-.169-.166-.1-.1-.2-.206-.294-.312-.051-.056-.1-.112-.15-.169-.1-.121-.2-.246-.3-.372-.032-.042-.066-.082-.1-.124-.142-.195-.273-.394-.4-.6-.031-.051-.059-.1-.089-.153q-.148-.256-.274-.517c-.02-.041-.042-.082-.061-.123q-.142-.31-.25-.622c-.016-.048-.031-.1-.046-.145q-.084-.26-.143-.518c-.011-.049-.024-.1-.034-.146a5.177,5.177,0,0,1-.085-.563c0-.023,0-.045,0-.068a4.758,4.758,0,0,1-.011-.481c0-.056.007-.111.01-.166a3.835,3.835,0,0,1,.046-.382c.009-.051.016-.1.027-.154a3.361,3.361,0,0,1,.142-.494l3.177-8.267a2.743,2.743,0,0,0,.114-.4c.006-.026.012-.052.017-.077a3,3,0,0,0,.048-.408c0-.026,0-.053,0-.079a3.46,3.46,0,0,0-.01-.425c0-.007,0-.015,0-.022a4.339,4.339,0,0,0-.069-.453c0-.017,0-.034-.007-.051s-.008-.024-.01-.036a5.092,5.092,0,0,0-.145-.523l-.028-.083c-.062-.176-.134-.351-.214-.527l-.039-.081q-.127-.266-.282-.527l-.045-.074c-.108-.177-.224-.352-.349-.523-.005-.007-.009-.015-.015-.022s-.023-.027-.034-.041c-.124-.166-.254-.329-.394-.488q-1.233-1.4-2.4-2.855c-.111-.139-.228-.271-.348-.4-.028-.03-.055-.06-.083-.09-.119-.125-.24-.247-.365-.363l-.045-.04c-.115-.1-.233-.2-.353-.3l-.087-.069q-.2-.153-.4-.289l-.022-.016c-.013-.009-.026-.015-.039-.024-.168-.11-.339-.214-.511-.3l-.02-.01a5.649,5.649,0,0,0-.519-.24l-.043-.019a4.9,4.9,0,0,0-.509-.168l-.072-.02a4.212,4.212,0,0,0-.49-.093c-.014,0-.03-.007-.044-.008s-.037,0-.055,0c-.078-.008-.156-.012-.234-.015-.035,0-.072,0-.107,0a3.11,3.11,0,0,0-.33.014l-9.315.962a3.894,3.894,0,0,1-.455.018c-.052,0-.106-.008-.16-.01-.1-.005-.2-.009-.3-.021a5.088,5.088,0,0,1-.611-.116c-.053-.013-.107-.028-.161-.043-.174-.048-.347-.1-.52-.17-.036-.013-.072-.024-.108-.039-.2-.081-.4-.175-.6-.279-.049-.025-.1-.053-.146-.079q-.244-.134-.483-.289c-.046-.03-.092-.057-.137-.088-.177-.12-.353-.248-.524-.384-.024-.019-.046-.039-.069-.058q-.222-.181-.432-.378c-.051-.047-.1-.1-.149-.145-.116-.114-.229-.231-.34-.352-.045-.049-.091-.1-.134-.149-.148-.17-.291-.344-.425-.525l-.006-.009c-.148-.2-.284-.409-.413-.622-.033-.054-.064-.109-.1-.164-.126-.22-.246-.443-.35-.674l-7.869-17.486a6.789,6.789,0,0,1-.271-.7c-.025-.077-.04-.151-.062-.227-.043-.154-.088-.308-.117-.458-.011-.054-.017-.107-.026-.16-.026-.155-.046-.308-.057-.457-.005-.065-.009-.129-.011-.193a4.2,4.2,0,0,1,.006-.427c0-.05,0-.1.008-.151a3.767,3.767,0,0,1,.09-.53c.008-.031.02-.06.028-.091a3.3,3.3,0,0,1,.138-.4c.021-.049.045-.1.068-.144a2.979,2.979,0,0,1,.177-.308c.027-.041.053-.083.083-.123a2.659,2.659,0,0,1,.319-.365l-12.822,11.956a2.742,2.742,0,0,0-.319.365c-.029.04-.055.082-.082.123a2.852,2.852,0,0,0-.177.308c-.024.048-.047.095-.068.144a3.114,3.114,0,0,0-.139.4c-.009.03-.02.059-.028.09a3.685,3.685,0,0,0-.089.53c-.006.049-.006.1-.009.15q-.013.209-.006.427c0,.064.006.128.011.193q.017.224.058.457c.009.054.015.106.025.161,0,.02.005.039.009.058.028.13.07.266.108.4.021.076.036.15.062.228a6.829,6.829,0,0,0,.27.7l7.869,17.486c.1.231.224.454.35.674.032.055.064.11.1.164.129.214.265.423.413.623l0,.007h0c.134.182.277.355.425.525.044.051.09.1.135.149.11.121.223.238.34.352.05.049.1.1.149.145q.212.2.433.378c.023.019.045.04.068.058.171.136.346.264.524.384l.046.034c.03.02.061.035.091.054q.239.155.484.288l.145.08c.2.1.4.2.6.278.036.015.072.026.108.039q.259.1.519.17c.054.015.107.03.161.043a5.057,5.057,0,0,0,.61.116l.01,0c.1.011.2.015.3.019.052,0,.1.01.156.01a3.888,3.888,0,0,0,.454-.018l9.315-.962a3.158,3.158,0,0,1,.331-.014c.035,0,.07,0,.106,0,.078,0,.156.007.234.016l.1.012a4.183,4.183,0,0,1,.49.093l.072.02a4.853,4.853,0,0,1,.509.168l.043.019a5.6,5.6,0,0,1,.52.241l.019.009c.171.091.342.195.51.305l.062.04q.2.136.4.289l.087.069c.12.1.237.2.352.3l.045.04c.125.116.247.238.365.363l.083.09c.119.13.236.262.347.4q1.167,1.451,2.4,2.855c.14.159.27.322.393.487l.049.064c.125.171.241.347.348.523l.045.074c.1.174.2.351.281.527l.039.081q.122.264.214.528c.01.028.019.055.028.082a5.071,5.071,0,0,1,.145.523c.007.029.012.058.018.086a4.359,4.359,0,0,1,.068.453c0,.008,0,.015,0,.023a3.7,3.7,0,0,1,.01.424c0,.027,0,.053,0,.08a3.16,3.16,0,0,1-.049.407c-.005.026-.011.052-.017.078a2.714,2.714,0,0,1-.115.4l-3.176,8.267a3.318,3.318,0,0,0-.143.494c-.01.051-.018.1-.027.155-.021.125-.037.252-.046.382,0,.055-.009.11-.01.166a4.69,4.69,0,0,0,.011.482c0,.023,0,.045,0,.068a5.217,5.217,0,0,0,.085.563c0,.017,0,.034.008.051s.019.064.026.1c.039.172.087.345.143.519.016.049.03.1.046.145.073.208.156.416.251.623.019.041.04.081.06.122q.126.262.275.519c.029.051.057.1.088.151.123.2.254.4.4.6l.015.022c.025.035.055.067.081.1.1.126.2.251.3.373.049.057.1.112.15.168q.143.159.294.312c.056.056.111.111.168.166.109.1.221.2.335.3.053.046.1.092.158.136.171.139.345.273.527.4l16.293,11.266.117.08c.034.022.066.038.1.059q.248.159.5.294c.053.029.106.059.159.086.2.1.408.2.611.278.028.011.056.019.084.029.178.066.354.122.53.17.055.015.109.029.164.042a4.95,4.95,0,0,0,.534.1l.046.009h.013c.1.012.2.015.3.02.049,0,.1.008.15.009a3.772,3.772,0,0,0,.434-.019,2.93,2.93,0,0,0,1.74-.746l12.822-11.956A2.929,2.929,0,0,1,3542.438,1487.912Z" transform="translate(-3474.249 -1367.151)" fill="#419973"/>
  </g>
</svg>
