<svg xmlns="http://www.w3.org/2000/svg" width="24.54" height="16.367" viewBox="0 0 24.54 16.367">
  <path id="Icon_ionic-ios-arrow-round-forward" data-name="Icon ionic-ios-arrow-round-forward" d="M23.525,11.565a1.114,1.114,0,0,0-.009,1.568L28.7,18.324H8.975a1.108,1.108,0,0,0,0,2.216H28.69l-5.183,5.191a1.122,1.122,0,0,0,.009,1.568,1.1,1.1,0,0,0,1.56-.009L32.1,20.217h0a1.244,1.244,0,0,0,.23-.349,1.058,1.058,0,0,0,.085-.426,1.111,1.111,0,0,0-.315-.776l-7.024-7.075A1.086,1.086,0,0,0,23.525,11.565Z" transform="translate(32.415 27.619) rotate(180)" fill="#ef6278"/>
</svg>
