<svg xmlns="http://www.w3.org/2000/svg" xmlns:xlink="http://www.w3.org/1999/xlink" width="434.398" height="434.398" viewBox="0 0 434.398 434.398">
  <defs>
    <clipPath id="clip-path">
      <rect id="Rectangle_11" data-name="Rectangle 11" width="151.305" height="25.218" transform="translate(0)" fill="#ffa3b1"/>
    </clipPath>
  </defs>
  <g id="Component_4_2" data-name="Component 4 – 2" transform="translate(159.001) rotate(30)">
    <g id="Group_174" data-name="Group 174" transform="translate(0 0)">
      <circle id="Ellipse_2" data-name="Ellipse 2" cx="129.823" cy="129.823" r="129.823" transform="matrix(0.966, -0.259, 0.259, 0.966, 0, 67.202)" fill="#f8e7e4"/>
      <g id="Mask_Group_1" data-name="Mask Group 1" transform="matrix(0.966, -0.259, 0.259, 0.966, 135.109, 152.832)" clip-path="url(#clip-path)">
        <circle id="Ellipse_3" data-name="Ellipse 3" cx="129.823" cy="129.823" r="129.823" transform="translate(-108.342 -117.682)" fill="#ffa3b1"/>
      </g>
      <g id="Group_5" data-name="Group 5" transform="matrix(0.966, -0.259, 0.259, 0.966, 71.828, 162.053)">
        <g id="Group_3" data-name="Group 3" transform="translate(0 0.002)">
          <path id="Path_177" data-name="Path 177" d="M9.359,0C3.2,0,0,3.652,0,10.042V29.887c0,6.388,3.2,10.04,9.359,10.04s9.357-3.652,9.357-10.04V16.818H9.928v5.705h2.853v7.761c0,2.855-1.254,3.882-3.252,3.882s-3.252-1.027-3.252-3.882V9.643c0-2.853,1.257-3.937,3.252-3.937s3.252,1.084,3.252,3.937v3.809h5.935V10.042C18.716,3.652,15.52,0,9.359,0Z" transform="translate(0 0.015)" fill="#233176"/>
          <path id="Path_178" data-name="Path 178" d="M0,0V39.942H21.378V34.236H6.274v-11.7h9.691V16.832H6.274V5.705H28.564V39.942H34.84V5.705h10.8V0Z" transform="translate(21.297)" fill="#233176"/>
        </g>
        <g id="Group_4" data-name="Group 4" transform="translate(69.521 0)">
          <path id="Path_179" data-name="Path 179" d="M14.721,18.658c2.794-1.313,4.051-3.938,4.051-8.045V9.187c0-6.163-2.8-9.187-9.3-9.187H0V39.941H9.871c6.277,0,9.529-3.31,9.529-9.471V27.218C19.4,23,18.087,19.971,14.721,18.658ZM6.274,5.705H9.3c2.225,0,3.2,1.257,3.2,4.109V12.04c0,3.194-1.426,4.793-3.765,4.793H6.274Zm6.848,24.913c0,2.967-1.141,3.464-3.252,3.464h-3.6V22.538h2.8c2.853,0,4.051.571,4.051,4.281Z" transform="translate(0 0.019)" fill="#233176"/>
          <path id="Path_180" data-name="Path 180" d="M9.529,0C3.368,0,0,3.652,0,10.042V29.916c0,6.388,3.368,10.04,9.529,10.04s9.529-3.652,9.529-10.04V10.042C19.058,3.652,15.692,0,9.529,0Zm3.252,30.313c0,2.855-1.254,3.938-3.252,3.938s-3.252-1.083-3.252-3.938V9.643c0-2.852,1.257-3.937,3.252-3.937s3.252,1.085,3.252,3.937Z" transform="translate(21.179)" fill="#233176"/>
          <path id="Path_181" data-name="Path 181" d="M6.274,0H0V39.942H15.407V34.236H6.274Z" transform="translate(42.818 0.019)" fill="#233176"/>
          <path id="Path_182" data-name="Path 182" d="M20.666,0H0V39.941H20.666c6.276,0,9.359-3.48,9.359-9.87V9.873C30.026,3.482,26.943,0,20.666,0Zm3.082,30.357c0,2.853-1.2,3.879-3.2,3.879H6.274V5.705H20.552c2,0,3.2,1.029,3.2,3.882Z" transform="translate(60.805 0.019)" fill="#233176"/>
          <rect id="Rectangle_7" data-name="Rectangle 7" width="6.277" height="29.928" transform="translate(93.959 0.019)" fill="#233176"/>
          <rect id="Rectangle_8" data-name="Rectangle 8" width="6.277" height="5.705" transform="translate(93.959 34.255)" fill="#233176"/>
        </g>
      </g>
      <g id="Group_12" data-name="Group 12" transform="matrix(0.966, -0.259, 0.259, 0.966, 120.524, 229.264)">
        <path id="Path_324" data-name="Path 324" d="M8.4,0,6.572,5.2H5.182L4.189,2.358,3.205,5.2H1.817L0,0H1.661L2.668,3.125h.016l.953-3.1H4.755l.949,3.1h.02L6.727,0Z" transform="translate(0 1.866)" fill="#233176"/>
        <path id="Path_325" data-name="Path 325" d="M8.4,0,6.571,5.2H5.181L4.188,2.358,3.2,5.2H1.815L0,0H1.66L2.668,3.125h.015l.953-3.1H4.755l.948,3.1h.02L6.727,0Z" transform="translate(8.524 1.866)" fill="#233176"/>
        <path id="Path_326" data-name="Path 326" d="M8.4,0,6.571,5.2H5.181L4.188,2.358,3.2,5.2H1.815L0,0H1.66L2.668,3.125h.015l.953-3.1H4.755l.948,3.1h.02L6.727,0Z" transform="translate(17.047 1.866)" fill="#233176"/>
        <path id="Path_327" data-name="Path 327" d="M.848,0A.81.81,0,0,1,1.7.813a.8.8,0,0,1-.853.808A.8.8,0,0,1,0,.813.809.809,0,0,1,.848,0Z" transform="translate(25.939 5.594)" fill="#233176"/>
        <path id="Path_328" data-name="Path 328" d="M2.789,0a2.563,2.563,0,0,1,1.66.6l.1-.431H5.8V4.972A2.549,2.549,0,0,1,3,7.635C1.112,7.635.4,6.552.341,5.594H1.815a1.111,1.111,0,0,0,1.18.757,1.2,1.2,0,0,0,1.28-1.29v-.17a2.668,2.668,0,0,1-1.636.552A2.568,2.568,0,0,1,0,2.769,2.678,2.678,0,0,1,2.789,0Zm.149,4.2a1.364,1.364,0,0,0,1.38-1.44A1.364,1.364,0,0,0,2.934,1.335,1.358,1.358,0,0,0,1.549,2.764,1.374,1.374,0,0,0,2.938,4.2Z" transform="translate(28.444 1.701)" fill="#233176"/>
        <path id="Path_329" data-name="Path 329" d="M2.89,0A2.774,2.774,0,0,1,5.8,2.769a2.09,2.09,0,0,1-.04.432H1.6A1.352,1.352,0,0,0,2.9,4.264a1.178,1.178,0,0,0,1.048-.551H5.625A2.812,2.812,0,0,1,2.89,5.533,2.769,2.769,0,1,1,2.89,0ZM1.677,2.122H4.125a1.322,1.322,0,0,0-2.448,0Z" transform="translate(35.23 1.701)" fill="#233176"/>
        <path id="Path_330" data-name="Path 330" d="M1.259.01,2.373,0V1.445h1.51v1.33H2.373V4.6c0,.646.321.813.737.813h.869l-.01,1.269H2.961C1.791,6.683.828,6.361.828,4.616V2.775H0V1.591l.787-.3Z" transform="translate(41.516 0.421)" fill="#233176"/>
        <path id="Path_331" data-name="Path 331" d="M3.015,7.244A2.6,2.6,0,0,1,1.39,6.667l-.07.4H0V0H1.55V2.162A2.454,2.454,0,0,1,3.041,1.7,2.66,2.66,0,0,1,5.8,4.47,2.684,2.684,0,0,1,3.015,7.244Zm-.15-4.209A1.371,1.371,0,0,0,1.476,4.464,1.365,1.365,0,0,0,2.86,5.909,1.371,1.371,0,0,0,4.245,4.464,1.352,1.352,0,0,0,2.865,3.035Z" transform="translate(46.452)" fill="#233176"/>
        <path id="Path_332" data-name="Path 332" d="M2.894,0a2.77,2.77,0,1,1-.008,5.533A2.769,2.769,0,1,1,2.894,0ZM2.9,4.2a1.345,1.345,0,0,0,1.349-1.44,1.354,1.354,0,1,0-2.7,0A1.359,1.359,0,0,0,2.9,4.2Z" transform="translate(52.995 1.701)" fill="#233176"/>
        <path id="Path_333" data-name="Path 333" d="M0,0H1.549V7.068H0Z" transform="translate(59.798)" fill="#233176"/>
        <path id="Path_334" data-name="Path 334" d="M2.758,1.7a2.484,2.484,0,0,1,1.5.466V0H5.8V7.068H4.479L4.4,6.642a2.443,2.443,0,0,1-1.614.6A2.686,2.686,0,0,1,0,4.47,2.663,2.663,0,0,1,2.758,1.7Zm.181,4.213A1.368,1.368,0,0,0,4.323,4.464,1.362,1.362,0,0,0,2.935,3.035a1.352,1.352,0,0,0-1.38,1.429A1.372,1.372,0,0,0,2.939,5.909Z" transform="translate(62.352)" fill="#233176"/>
        <path id="Path_335" data-name="Path 335" d="M.848,0A.81.81,0,0,1,1.7.813a.8.8,0,0,1-.853.808A.8.8,0,0,1,0,.813.809.809,0,0,1,.848,0Z" transform="translate(69.289 5.594)" fill="#233176"/>
        <path id="Path_336" data-name="Path 336" d="M2.789,0A2.59,2.59,0,0,1,4.414.567l.065-.4H5.8v5.2H4.479l-.071-.4a2.6,2.6,0,0,1-1.62.561A2.677,2.677,0,0,1,0,2.769,2.678,2.678,0,0,1,2.789,0Zm.149,4.2a1.367,1.367,0,0,0,1.385-1.44,1.371,1.371,0,0,0-1.39-1.429A1.358,1.358,0,0,0,1.55,2.764,1.374,1.374,0,0,0,2.938,4.2Z" transform="translate(71.794 1.701)" fill="#233176"/>
        <path id="Path_337" data-name="Path 337" d="M2.79,0a2.565,2.565,0,0,1,1.66.6L4.544.165H5.8V4.972A2.549,2.549,0,0,1,3,7.635C1.113,7.635.4,6.552.341,5.594H1.816a1.109,1.109,0,0,0,1.179.757,1.2,1.2,0,0,0,1.28-1.29v-.17a2.664,2.664,0,0,1-1.636.552A2.568,2.568,0,0,1,0,2.769,2.679,2.679,0,0,1,2.79,0Zm.149,4.2a1.363,1.363,0,0,0,1.38-1.44A1.364,1.364,0,0,0,2.935,1.335,1.359,1.359,0,0,0,1.549,2.764,1.374,1.374,0,0,0,2.939,4.2Z" transform="translate(78.662 1.701)" fill="#233176"/>
        <path id="Path_338" data-name="Path 338" d="M2.89,0A2.775,2.775,0,0,1,5.8,2.769a2.153,2.153,0,0,1-.04.432H1.6A1.352,1.352,0,0,0,2.9,4.264a1.176,1.176,0,0,0,1.048-.551H5.623A2.81,2.81,0,0,1,2.89,5.533,2.769,2.769,0,1,1,2.89,0ZM1.676,2.122H4.124a1.322,1.322,0,0,0-2.448,0Z" transform="translate(85.448 1.701)" fill="#233176"/>
        <path id="Path_339" data-name="Path 339" d="M5.378,5.368H3.817V2.613c0-.963-.421-1.279-1.024-1.279a1.272,1.272,0,0,0-1.244,1.42V5.368H0V.165H1.244l.1.4A3.164,3.164,0,0,1,3.02,0C4.68,0,5.378.978,5.378,2.579Z" transform="translate(92.247 1.701)" fill="#233176"/>
        <path id="Path_340" data-name="Path 340" d="M2.9,4.2a1.293,1.293,0,0,0,1.208-.752H5.69a2.749,2.749,0,0,1-2.8,2.091A2.771,2.771,0,1,1,2.89,0a2.756,2.756,0,0,1,2.8,2.091L4.109,2.1A1.289,1.289,0,0,0,2.9,1.339,1.339,1.339,0,0,0,1.55,2.768,1.34,1.34,0,0,0,2.9,4.2Z" transform="translate(98.476 1.696)" fill="#233176"/>
        <path id="Path_341" data-name="Path 341" d="M5.819,0,2.789,6.988H1.113L2.1,4.881,0,.006H1.71L2.834,2.774,2.92,3.1,4.153.006Z" transform="translate(104.452 1.866)" fill="#233176"/>
      </g>
      <g id="Ellipse_4" data-name="Ellipse 4" transform="matrix(0.966, -0.259, 0.259, 0.966, 12.583, 74.466)" fill="none" stroke="#233176" stroke-linecap="round" stroke-width="5">
        <circle cx="119.55" cy="119.55" r="119.55" stroke="none"/>
        <circle cx="119.55" cy="119.55" r="122.05" fill="none"/>
      </g>
    </g>
  </g>
</svg>
