<svg xmlns="http://www.w3.org/2000/svg" width="130.442" height="111.835" viewBox="0 0 130.442 111.835">
  <g id="Group_132" data-name="Group 132" transform="translate(-154.043 -422.881)">
    <g id="Group_131" data-name="Group 131" transform="translate(154.043 422.881)">
      <g id="Group_129" data-name="Group 129" transform="translate(0.186)">
        <path id="Path_1140" data-name="Path 1140" d="M166.612,422.921c-8.02,0-12.18,4.752-12.18,13.068v25.825c0,8.313,4.16,13.066,12.18,13.066s12.177-4.752,12.177-13.066V444.807H167.352v7.425h3.713v10.1c0,3.715-1.633,5.051-4.232,5.051s-4.232-1.336-4.232-5.051V435.47c0-3.713,1.635-5.124,4.232-5.124s4.232,1.412,4.232,5.124v4.957h7.724v-4.437C178.789,427.673,174.629,422.921,166.612,422.921Z" transform="translate(-154.432 -422.902)" fill="#233176"/>
        <path id="Path_1141" data-name="Path 1141" d="M212.482,422.881v51.978H240.3v-7.425H220.647V452.21h12.612v-7.425H220.647v-14.48h29.006v44.553h8.168V430.305h14.058v-7.425Z" transform="translate(-184.767 -422.881)" fill="#233176"/>
      </g>
      <g id="Group_130" data-name="Group 130" transform="translate(0 59.832)">
        <path id="Path_1142" data-name="Path 1142" d="M173.2,572.532c3.637-1.708,5.272-5.124,5.272-10.469v-1.856c0-8.02-3.64-11.956-12.1-11.956H154.043v51.978h12.845c8.168,0,12.4-4.307,12.4-12.325v-4.232C179.289,578.176,177.58,574.24,173.2,572.532Zm-10.992-16.856h3.936c2.9,0,4.16,1.635,4.16,5.348v2.9c0,4.157-1.856,6.236-4.9,6.236h-3.2ZM171.12,588.1c0,3.861-1.484,4.508-4.232,4.508h-4.68V577.581h3.64c3.712,0,5.272.743,5.272,5.571Z" transform="translate(-154.043 -548.226)" fill="#233176"/>
        <path id="Path_1143" data-name="Path 1143" d="M224.171,548.2c-8.017,0-12.4,4.752-12.4,13.068V587.13c0,8.313,4.383,13.066,12.4,13.066s12.4-4.752,12.4-13.066V561.267C236.571,552.951,232.191,548.2,224.171,548.2Zm4.232,39.448c0,3.715-1.632,5.124-4.232,5.124s-4.232-1.408-4.232-5.124v-26.9c0-3.712,1.636-5.124,4.232-5.124s4.232,1.412,4.232,5.124Z" transform="translate(-184.209 -548.199)" fill="#233176"/>
        <path id="Path_1144" data-name="Path 1144" d="M278.915,548.251H270.75v51.978H290.8V592.8H278.915Z" transform="translate(-215.03 -548.226)" fill="#233176"/>
        <path id="Path_1145" data-name="Path 1145" d="M346.673,548.251H319.779v51.978h26.894c8.168,0,12.18-4.528,12.18-12.845V561.1C358.853,552.782,354.841,548.251,346.673,548.251Zm4.011,39.505c0,3.712-1.56,5.048-4.159,5.048H327.944V555.676h18.581c2.6,0,4.159,1.339,4.159,5.051Z" transform="translate(-240.65 -548.226)" fill="#233176"/>
        <rect id="Rectangle_54" data-name="Rectangle 54" width="8.168" height="38.946" transform="translate(122.273 0.025)" fill="#233176"/>
        <rect id="Rectangle_55" data-name="Rectangle 55" width="8.168" height="7.425" transform="translate(122.273 44.578)" fill="#233176"/>
      </g>
    </g>
  </g>
</svg>
