<svg xmlns="http://www.w3.org/2000/svg" width="24.39" height="24.333" viewBox="0 0 24.39 24.333">
  <path id="linkedin" d="M18.221,12.73a2.047,2.047,0,0,0-1.714-.6,2.446,2.446,0,0,0-2.171.914,4.5,4.5,0,0,0-.629,2.57v8.34a.59.59,0,0,1-.629.629H8.739a.648.648,0,0,1-.428-.171.572.572,0,0,1-.2-.457V8.532A.693.693,0,0,1,8.739,7.9h4.227a.577.577,0,0,1,.372.114.611.611,0,0,1,.2.343v.286a.984.984,0,0,1,.057.4A5.99,5.99,0,0,1,17.935,7.5a6.832,6.832,0,0,1,4.741,1.542,5.759,5.759,0,0,1,1.714,4.512v10.4a.572.572,0,0,1-.2.457.648.648,0,0,1-.428.171H19.306a.648.648,0,0,1-.428-.171.572.572,0,0,1-.2-.457V14.587a3.06,3.06,0,0,0-.457-1.856ZM5.026,5.305a2.791,2.791,0,0,1-2.084.886A2.793,2.793,0,0,1,.857,5.305,2.93,2.93,0,0,1,0,3.192,2.843,2.843,0,0,1,.857,1.107,2.833,2.833,0,0,1,2.942.25a2.838,2.838,0,0,1,2.084.857,2.844,2.844,0,0,1,.857,2.085A2.923,2.923,0,0,1,5.026,5.305Zm.742,3.227V23.954a.572.572,0,0,1-.2.457.648.648,0,0,1-.428.171H.8a.618.618,0,0,1-.457-.171.618.618,0,0,1-.171-.457V8.532A.648.648,0,0,1,.343,8.1.572.572,0,0,1,.8,7.9H5.141a.693.693,0,0,1,.629.629Z" transform="translate(0 -0.25)" fill="#233176"/>
</svg>
