<svg xmlns="http://www.w3.org/2000/svg" width="159.197" height="37.475" viewBox="0 0 159.197 37.475">
  <g id="Group_24" data-name="Group 24" transform="translate(-728.648 -485.54)">
    <g id="Group_22" data-name="Group 22" transform="translate(728.648 485.542)">
      <path id="Path_349" data-name="Path 349" d="M737.425,485.586c-5.779,0-8.777,3.424-8.777,9.418v18.61c0,5.991,3,9.416,8.777,9.416s8.775-3.424,8.775-9.416V501.358h-8.241v5.35h2.675v7.278c0,2.677-1.176,3.64-3.05,3.64s-3.05-.963-3.05-3.64V494.629c0-2.675,1.179-3.692,3.05-3.692s3.05,1.017,3.05,3.692V498.2H746.2V495C746.2,489.01,743.2,485.586,737.425,485.586Z" transform="translate(-728.648 -485.572)" fill="#233176"/>
      <path id="Path_350" data-name="Path 350" d="M786.7,485.546V523h20.048v-5.35H792.582V506.682h9.088v-5.35h-9.088V490.9h20.9V523h5.886V490.9H829.5v-5.35Z" transform="translate(-766.725 -485.546)" fill="#233176"/>
    </g>
    <g id="Group_23" data-name="Group 23" transform="translate(793.844 485.54)">
      <path id="Path_351" data-name="Path 351" d="M931.946,503.09c2.621-1.231,3.8-3.693,3.8-7.544v-1.338c0-5.779-2.623-8.616-8.723-8.616h-8.881v37.457H927.4c5.886,0,8.936-3.1,8.936-8.881v-3.05C936.333,507.157,935.1,504.32,931.946,503.09Zm-7.921-12.147h2.836c2.087,0,3,1.178,3,3.853v2.087c0,3-1.337,4.494-3.531,4.494h-2.3Zm6.422,23.364c0,2.782-1.07,3.249-3.05,3.249h-3.372V506.728h2.623c2.675,0,3.8.536,3.8,4.015Z" transform="translate(-918.141 -485.574)" fill="#233176"/>
      <path id="Path_352" data-name="Path 352" d="M984.8,485.54c-5.777,0-8.936,3.424-8.936,9.418V513.6c0,5.991,3.159,9.416,8.936,9.416s8.936-3.425,8.936-9.416V494.958C993.74,488.964,990.584,485.54,984.8,485.54Zm3.05,28.427c0,2.677-1.176,3.693-3.05,3.693s-3.05-1.015-3.05-3.693V494.583c0-2.675,1.179-3.692,3.05-3.692s3.05,1.017,3.05,3.692Z" transform="translate(-956.007 -485.54)" fill="#233176"/>
      <path id="Path_353" data-name="Path 353" d="M1040.732,485.592h-5.884v37.457H1049.3V517.7h-8.564Z" transform="translate(-994.694 -485.574)" fill="#233176"/>
      <path id="Path_354" data-name="Path 354" d="M1103.257,485.592h-19.38v37.457h19.38c5.886,0,8.777-3.263,8.777-9.256V494.851C1112.035,488.857,1109.144,485.592,1103.257,485.592Zm2.891,28.469c0,2.675-1.124,3.638-3,3.638h-13.39V490.942h13.39c1.873,0,3,.965,3,3.64Z" transform="translate(-1026.854 -485.574)" fill="#233176"/>
      <rect id="Rectangle_12" data-name="Rectangle 12" width="5.886" height="28.066" transform="translate(88.114 0.018)" fill="#233176"/>
      <rect id="Rectangle_13" data-name="Rectangle 13" width="5.886" height="5.35" transform="translate(88.114 32.124)" fill="#233176"/>
    </g>
  </g>
</svg>
