<svg xmlns="http://www.w3.org/2000/svg" width="76.957" height="69.285" viewBox="0 0 76.957 69.285">
  <g id="Group_89" data-name="Group 89" transform="translate(-738.291 302.667) rotate(-112)">
    <g id="Group_87" data-name="Group 87" transform="translate(-59.8 788.576)">
      <path id="Path_840" data-name="Path 840" d="M-16.532,848.223c-10.477,9.542-27.049,4.379-34.791-6.583-5.2-7.363-6.238-16.776-5.718-25.706.558-9.6,2.506-20.117,7.029-28.526.887-1.648,3.3-.161,2.4,1.485-4.018,7.377-5.619,16.235-6.581,24.618-.956,8.339-.387,17.127,3.587,24.557,6.1,11.414,23.145,17.354,33.594,9.5.368-.276.822.35.481.66Z" transform="translate(57.161 -786.691)" fill="#ffa3b1"/>
    </g>
    <g id="Group_88" data-name="Group 88" transform="translate(-66.133 786.691)">
      <path id="Path_841" data-name="Path 841" d="M-62.064,855.492a15.523,15.523,0,0,1-3.224,2.151.559.559,0,0,1-.815-.625c2.4-6.927,8.9-13.952,15.7-16.685.876-.352,1.649.517,1.71,1.3.349,4.489-.258,9.008.479,13.468.565,3.416,2.027,6.685,2.666,10.09.373,1.992-2.613,2.862-3.066.845-.787-3.51-2.28-6.928-2.742-10.51-.6-4.632.157-9.249-.038-13.894l1.71,1.3c-3.426,1.235-5.764,3.467-8.324,5.942-2.679,2.592-5.387,5.2-7.085,8.566l-.627-.815a14.9,14.9,0,0,0,3.291-1.605c.28-.194.607.24.361.467Z" transform="translate(66.133 -840.252)" fill="#ffa3b1"/>
    </g>
  </g>
</svg>
