<svg xmlns="http://www.w3.org/2000/svg" width="146.425" height="51.751" viewBox="0 0 146.425 51.751">
  <path id="Path_842" data-name="Path 842" d="M294.443,17.928c-19.937,1.533-39.875,5.751-55.707,14.57-8.8,4.985-19.351,13.8-10.555,21.471,4.692,4.6,13.487,6.519,21.7,7.285,12.314,1.917,25.8,1.534,38.7.384a255.386,255.386,0,0,0,42.806-6.9c10.555-2.684,21.7-6.135,29.906-11.5,4.691-3.068,8.8-7.669,4.691-11.886-4.1-4.6-14.073-6.518-21.7-7.668-21.7-3.451-46.911-2.684-68.607.767-11.727,1.917-22.282,4.6-29.319,11.119" transform="matrix(0.999, 0.035, -0.035, 0.999, -221.457, -24.655)" fill="none" stroke="#ffa3b1" stroke-linecap="round" stroke-linejoin="bevel" stroke-width="2"/>
</svg>
