<svg xmlns="http://www.w3.org/2000/svg" width="185.328" height="5.75" viewBox="0 0 185.328 5.75">
  <path id="Path_975" data-name="Path 975" d="M274.128,389.83c14.562-.941,29.256-.326,43.846-.615,15.016-.3,30.04-.121,45.055-.022q22.648.15,45.289.672c15.782.373,31.826-1.39,47.516.8,2.909.4,4.164-4.066,1.227-4.474-14.944-2.083-29.9-.432-44.905-.864-15.748-.453-31.5-.414-47.256-.34-15.642.075-31.289.112-46.926.571-14.752.431-29.43.486-44.041,2.824-.819.131-.625,1.5.195,1.451Z" transform="translate(-273.407 -384.938)" fill="#ffa3b1"/>
</svg>
