<svg xmlns="http://www.w3.org/2000/svg" width="142.268" height="142.268" viewBox="0 0 142.268 142.268">
  <g id="board-wood-svgrepo-com" transform="translate(1 141.268) rotate(-90)">
    <g id="Group_3465" data-name="Group 3465" transform="translate(-1 -1)">
      <g id="Group_3464" data-name="Group 3464" transform="translate(0 0)">
        <path id="Path_5238" data-name="Path 5238" d="M140.557,41.681,132.778,33.9a2.515,2.515,0,0,0-1.277-1.277L98.588-.288a2.292,2.292,0,0,0-3.32,0L-.288,95.268a2.292,2.292,0,0,0,0,3.32l41.969,41.969a2.292,2.292,0,0,0,3.319,0L140.557,45A2.292,2.292,0,0,0,140.557,41.681Zm-97.216,93.9L38.361,130.6,56.856,112.1a2.347,2.347,0,0,0-3.32-3.32L35.041,127.278l-5.216-5.216,6.639-6.639a2.347,2.347,0,0,0-3.32-3.32l-6.639,6.639-4.979-4.979L40.021,95.268a2.347,2.347,0,0,0-3.32-3.32L18.206,110.443l-4.979-4.979L40.021,78.67a2.347,2.347,0,0,0-3.32-3.32L9.907,102.144,4.691,96.928,96.928,4.691l13.515,13.515L93.608,35.041a2.292,2.292,0,0,0,0,3.32,2.292,2.292,0,0,0,3.319,0l16.835-16.835,5.1,5.1L112.1,33.382a2.292,2.292,0,0,0,0,3.32,2.292,2.292,0,0,0,3.319,0l6.758-6.758,4.979,4.979L117.082,45a2.292,2.292,0,0,0,0,3.32,2.292,2.292,0,0,0,3.319,0l10.077-10.077,5.1,5.1Z" transform="translate(1 1)" fill="#c48f67"/>
        <path id="Path_5239" data-name="Path 5239" d="M176.3,176.6a1.846,1.846,0,0,0,1.66-.711l21.815-21.815a2.347,2.347,0,1,0-3.32-3.32l-21.815,21.814a2.292,2.292,0,0,0,0,3.32A2.153,2.153,0,0,0,176.3,176.6Z" transform="translate(-125.325 -108.07)" fill="#c48f67"/>
        <path id="Path_5240" data-name="Path 5240" d="M285.53,85.477a2.56,2.56,0,0,0,1.66-.711l15.175-15.175a2.347,2.347,0,1,0-3.32-3.32L283.871,81.446a2.292,2.292,0,0,0,0,3.32A2.153,2.153,0,0,0,285.53,85.477Z" transform="translate(-204.201 -47.065)" fill="#c48f67"/>
        <path id="Path_5241" data-name="Path 5241" d="M278.614,150.752,265.1,164.267a2.292,2.292,0,0,0,0,3.32,2.152,2.152,0,0,0,1.66.711,1.845,1.845,0,0,0,1.66-.711l13.516-13.515a2.347,2.347,0,1,0-3.319-3.32Z" transform="translate(-190.645 -108.071)" fill="#c48f67"/>
        <path id="Path_5242" data-name="Path 5242" d="M331.658,165.073a2.292,2.292,0,0,0,3.319,0l11.856-11.856a2.347,2.347,0,1,0-3.32-3.32l-11.856,11.856A2.292,2.292,0,0,0,331.658,165.073Z" transform="translate(-238.71 -107.454)" fill="#c48f67"/>
        <path id="Path_5243" data-name="Path 5243" d="M210.156,305.915a4.695,4.695,0,1,0,0,6.639A4.584,4.584,0,0,0,210.156,305.915Z" transform="translate(-145.661 -219.606)" fill="#c48f67"/>
        <path id="Path_5244" data-name="Path 5244" d="M181.859,232.577a2.347,2.347,0,0,0-3.32-3.32l-15.175,15.175c-3.794,3.794-4.979,12.093-1.423,18.258l-5.217,5.217a2.292,2.292,0,0,0,0,3.32,2.152,2.152,0,0,0,1.66.711,2.449,2.449,0,0,0,1.9-.948l6.639-6.639a2.217,2.217,0,0,0,.237-3.082c-3.557-4.268-2.608-11.144-.237-13.515Z" transform="translate(-112.385 -164.763)" fill="#c48f67"/>
        <path id="Path_5245" data-name="Path 5245" d="M233.243,240.926l15.175-15.175a2.347,2.347,0,0,0-3.32-3.32l-16.835,16.835a2.292,2.292,0,0,0,0,3.319,11.119,11.119,0,0,1,3.32,6.4c.237,2.371-.948,4.742-3.32,7.113l-4.979,4.979a2.292,2.292,0,0,0,0,3.32,2.152,2.152,0,0,0,1.66.711,1.79,1.79,0,0,0,1.66-.948l4.979-4.979c3.32-3.32,4.979-6.876,4.742-10.67A14.024,14.024,0,0,0,233.243,240.926Z" transform="translate(-160.449 -159.834)" fill="#c48f67"/>
        <path id="Path_5246" data-name="Path 5246" d="M306.68,235.231l-16.835,16.835a2.292,2.292,0,0,0,0,3.32,2.152,2.152,0,0,0,1.66.711,2.56,2.56,0,0,0,1.66-.711L310,238.551a2.347,2.347,0,1,0-3.319-3.32Z" transform="translate(-208.515 -169.077)" fill="#c48f67"/>
        <path id="Path_5247" data-name="Path 5247" d="M383.617,193.418l-3.32,3.32a2.292,2.292,0,0,0,0,3.32,2.152,2.152,0,0,0,1.66.711,2.56,2.56,0,0,0,1.66-.711l3.32-3.32a2.347,2.347,0,1,0-3.319-3.32Z" transform="translate(-273.834 -138.882)" fill="#c48f67"/>
      </g>
    </g>
  </g>
</svg>
