<svg id="Group_3468" data-name="Group 3468" xmlns="http://www.w3.org/2000/svg" xmlns:xlink="http://www.w3.org/1999/xlink" width="104.328" height="98.35" viewBox="0 0 104.328 98.35">
  <defs>
    <linearGradient id="linear-gradient" x1="-0.191" y1="-0.368" x2="0.583" y2="1.379" gradientUnits="objectBoundingBox">
      <stop offset="0" stop-color="#233176"/>
      <stop offset="1" stop-color="#34957b"/>
    </linearGradient>
    <clipPath id="clip-path">
      <rect id="Rectangle_1737" data-name="Rectangle 1737" width="104.328" height="98.35" fill="url(#linear-gradient)"/>
    </clipPath>
  </defs>
  <g id="Group_3467" data-name="Group 3467" clip-path="url(#clip-path)">
    <path id="Path_5250" data-name="Path 5250" d="M104.32,52.525a2.884,2.884,0,0,0-2.865-3.069c-2.4-.125-4.815-.054-7.223-.024A.983.983,0,0,0,93.151,50.5c-.019.405-.022.813-.022,1.219,0,6.515.014,13.028-.005,19.54A8.684,8.684,0,0,1,87.1,79.484a8.546,8.546,0,0,1-9.565-2.7A1.725,1.725,0,0,0,75.3,76.26c-1.779.756-3.594,1.431-5.4,2.125-4.684,1.8-9.377,3.583-14.051,5.416a9.362,9.362,0,0,1-7.038.139q-9.691-3.721-19.38-7.44a8.966,8.966,0,0,1-6.121-8.934c-.005-2.171-.014-4.342,0-6.513a1.661,1.661,0,0,0-1.2-1.771c-1.08-.4-2.184-.735-3.264-1.14a8.906,8.906,0,0,1-6.153-7.31c-.182-1.151-.46-1.4-1.6-1.412-2.647-.024-5.294-.041-7.938.005A2.871,2.871,0,0,0,0,51.956v67.381a3.169,3.169,0,0,0,3.281,2.726c.405.033.813.022,1.219.022q6.056,0,12.111,0,6.158,0,12.312,0c1.5,0,1.5.008,1.51,1.548,0,.813,0,1.629,0,2.443-.005,1.472-.027,1.5-1.458,1.5-2.476.005-4.954-.033-7.429.014a3.341,3.341,0,1,0-.136,6.681c.37.033.745.024,1.118.024H81.749a8.387,8.387,0,0,0,1.523-.076,3.473,3.473,0,0,0,2.791-2.758,3.2,3.2,0,0,0-1.518-3.313,3.507,3.507,0,0,0-2.125-.571c-2.508,0-5.019-.008-7.53.005-.756,0-1.129-.25-1.1-1.058.035-1.153.014-2.307.008-3.46-.005-.683.294-1,.979-.979.337.014.677,0,1.017,0,8.175,0,16.349.011,24.524-.008,2.848-.008,4.007-1.205,4.007-4.021V54.56c0-.68.014-1.357,0-2.035M30.634,109.049c-.016,2.263-1.183,3.439-3.458,3.449q-5.741.029-11.488,0c-2.242-.011-3.436-1.235-3.439-3.479q-.012-5.692,0-11.385a3.16,3.16,0,0,1,3.52-3.512q5.692-.008,11.385,0a3.125,3.125,0,0,1,3.479,3.439c.019,1.9.005,3.795,0,5.691,0,1.934.014,3.866,0,5.8m58.722,3.4a9.7,9.7,0,0,1-1.319.057q-11.8,0-23.6,0-12.054,0-24.105,0c-2.089,0-3.43-1.115-3.517-2.865a3.018,3.018,0,0,1,2.639-3.2,6.77,6.77,0,0,1,.911-.041q24.006,0,48.009,0c1.8,0,2.919.672,3.4,2.024a3.019,3.019,0,0,1-2.421,4.023m-.647-12.22q-12.209.012-24.415,0-12.1,0-24.208.005a3.04,3.04,0,0,1-2.927-1.643,2.873,2.873,0,0,1,.16-3.085A3.113,3.113,0,0,1,40.1,94.117c2.984.008,5.966,0,8.95,0h38.86c.269,0,.541-.005.813,0a3.138,3.138,0,0,1,3.248,3.074,3.067,3.067,0,0,1-3.264,3.03m-64.867-.008c-1.591.03-3.186.024-4.78,0-.5-.005-.732.09-.718.661.033,1.627.027,3.256,0,4.883-.008.5.169.642.645.634,1.627-.019,3.256-.027,4.883.005.563.011.688-.22.669-.721-.03-.778-.008-1.559-.008-2.34,0-.813-.027-1.629.008-2.44.024-.539-.169-.694-.7-.683" transform="translate(0 -35.95)" fill="url(#linear-gradient)"/>
    <path id="Path_5251" data-name="Path 5251" d="M73.625,241.7c.019.5-.106.732-.669.721-1.627-.033-3.256-.025-4.883-.005-.476.008-.653-.136-.645-.634.027-1.627.033-3.256,0-4.883-.014-.571.223-.667.718-.661,1.594.024,3.188.03,4.78,0,.53-.011.724.144.7.683-.035.811-.008,1.627-.008,2.44,0,.781-.022,1.561.008,2.34" transform="translate(-49.085 -171.971)" fill="url(#linear-gradient)"/>
    <path id="Path_5252" data-name="Path 5252" d="M130.455,17.966c-5.987,2-11.813,3.942-17.641,5.884-3.172,1.057-6.362,2.064-9.512,3.182a5.555,5.555,0,0,1-3.936-.013Q84.792,21.859,70.183,16.8a3.416,3.416,0,0,1-2.414-2.12,3.089,3.089,0,0,1,2.211-3.956Q77.155,8.208,84.331,5.7c5.233-1.823,10.475-3.623,15.7-5.463A3.763,3.763,0,0,1,102.6.214q15.779,5.263,31.566,10.5a3.032,3.032,0,0,1,2.393,3.327q.008,10.378,0,20.756c0,2.089-1.194,3.41-3.054,3.414-1.819,0-3.048-1.369-3.05-3.438q-.008-7.987,0-15.973Z" transform="translate(-49.214 0)" fill="url(#linear-gradient)"/>
    <path id="Path_5253" data-name="Path 5253" d="M107.058,96.011c2.7.939,5.311,1.843,7.918,2.755,3.859,1.349,7.725,2.677,11.569,4.066a10.053,10.053,0,0,0,6.853.061c6.238-2.1,12.495-4.14,18.729-6.249.815-.276.958-.132.925.677-.06,1.455-.025,2.915-.015,4.373a3.13,3.13,0,0,1-2.137,3.228q-9.837,3.781-19.675,7.561a3.249,3.249,0,0,1-2.461-.038q-9.785-3.777-19.582-7.523a3.038,3.038,0,0,1-2.121-3.024c-.018-1.924,0-3.849,0-5.887" transform="translate(-77.931 -69.893)" fill="url(#linear-gradient)"/>
    <path id="Path_5254" data-name="Path 5254" d="M73.625,241.7c.019.5-.106.732-.669.721-1.627-.033-3.256-.025-4.883-.005-.476.008-.653-.136-.645-.634.027-1.627.033-3.256,0-4.883-.014-.571.223-.667.718-.661,1.594.024,3.188.03,4.78,0,.53-.011.724.144.7.683-.035.811-.008,1.627-.008,2.44,0,.781-.022,1.561.008,2.34" transform="translate(-49.085 -171.971)" fill="url(#linear-gradient)"/>
  </g>
</svg>
